  0
SECTION
  2
HEADER
  9
$ACADVER
  1
AC1009
  9
$INSBASE
 10
0.000000
 20
0.000000
  9
$LIMMIN
 10
-76.200000
 20
-76.200000
  9
$LIMMAX
 10
177.800000
 20
177.800000
  9
$EXTMIN
 10
-76.200000
 20
-76.200000
  9
$EXTMAX
 10
177.800000
 20
177.800000
  9
$ATTMODE
 70
0
  9
$LUNITS
 70
2
  9
$LUPREC
 70
3
  9
$THICKNESS
 40
3.535680
  0
ENDSEC
  0
SECTION
  2
TABLES
  0
TABLE
  2
LTYPE
 70
1
  0
LTYPE
  3
Solid Line
  2
CONTINUOUS
 70
0
 72
65
 73
0
 40
0.000000
  0
ENDTAB
  0
TABLE
  2
LAYER
 70
10
  0
LAYER
  2
BG_SOLDERMASK_BOTTOM
 70
0
 62
7
  6
CONTINUOUS
  0
LAYER
  2
BG_OUTLINE
 70
0
 62
7
  6
CONTINUOUS
  0
LAYER
  2
PG_SILKSCREEN_BOTTOM
 70
0
 62
253
  6
CONTINUOUS
  0
LAYER
  2
PG_ASSEMBLY_BOTTOM
 70
0
 62
200
  6
CONTINUOUS
  0
LAYER
  2
PIN_SOLDERMASK_BOTTOM
 70
0
 62
7
  6
CONTINUOUS
  0
LAYER
  2
RD_ASSEMBLY_BOTTOM
 70
0
 62
142
  6
CONTINUOUS
  0
LAYER
  2
TOL_ASSEMBLY_BOTTOM
 70
0
 62
7
  6
CONTINUOUS
  0
LAYER
  2
UPN_ASSEMBLY_BOTTOM
 70
0
 62
7
  6
CONTINUOUS
  0
LAYER
  2
PLAN_BOTTOM
 70
0
 62
5
  6
CONTINUOUS
  0
LAYER
  2
SURFACE_FINISHES_SILVER_INK_49
 70
0
 62
7
  6
CONTINUOUS
  0
ENDTAB
  0
TABLE
  2
STYLE
 70
1
  0
STYLE
  2
STANDARD
 70
0
 40
0.000000
 41
1.000000
 50
0.000000
 71
0
 42
0.200000
  3
txt
  0
ENDTAB
  0
ENDSEC
  0
SECTION
  2
BLOCKS
  0
BLOCK
  8
0
  2
FIGURE_CIRCLE
 70
0
 10
0.000000
 20
0.000000
  0
CIRCLE
  8
0
 10
0.000000
 20
0.000000
 40
0.500000
  0
ENDBLK
  0
BLOCK
  8
0
  2
FIGURE_SQUARE
 70
0
 10
0.000000
 20
0.000000
  0
POLYLINE
  8
0
 66
1
 70
1
 40
0.000000
 41
0.000000
 39
0.000000
  0
VERTEX
  8
0
 10
-0.500000
 20
-0.500000
 40
0.000000
 41
0.000000
 42
0.000000
  0
VERTEX
  8
0
 10
-0.500000
 20
0.500000
 40
0.000000
 41
0.000000
 42
0.000000
  0
VERTEX
  8
0
 10
0.500000
 20
0.500000
 40
0.000000
 41
0.000000
 42
0.000000
  0
VERTEX
  8
0
 10
0.500000
 20
-0.500000
 40
0.000000
 41
0.000000
 42
0.000000
  0
SEQEND
  0
ENDBLK
  0
BLOCK
  8
0
  2
FIGURE_HEX
 70
0
 10
0.000000
 20
0.000000
  0
POLYLINE
  8
0
 66
1
 70
1
 40
0.000000
 41
0.000000
 39
0.000000
  0
VERTEX
  8
0
 10
-0.500000
 20
0.000000
 40
0.000000
 41
0.000000
 42
0.000000
  0
VERTEX
  8
0
 10
-0.250000
 20
0.500000
 40
0.000000
 41
0.000000
 42
0.000000
  0
VERTEX
  8
0
 10
0.250000
 20
0.500000
 40
0.000000
 41
0.000000
 42
0.000000
  0
VERTEX
  8
0
 10
0.500000
 20
0.000000
 40
0.000000
 41
0.000000
 42
0.000000
  0
VERTEX
  8
0
 10
0.250000
 20
-0.500000
 40
0.000000
 41
0.000000
 42
0.000000
  0
VERTEX
  8
0
 10
-0.250000
 20
-0.500000
 40
0.000000
 41
0.000000
 42
0.000000
  0
SEQEND
  0
ENDBLK
  0
BLOCK
  8
0
  2
FIGURE_OCT
 70
0
 10
0.000000
 20
0.000000
  0
POLYLINE
  8
0
 66
1
 70
1
 40
0.000000
 41
0.000000
 39
0.000000
  0
VERTEX
  8
0
 10
-0.500000
 20
-0.207100
 40
0.000000
 41
0.000000
 42
0.000000
  0
VERTEX
  8
0
 10
-0.500000
 20
0.207100
 40
0.000000
 41
0.000000
 42
0.000000
  0
VERTEX
  8
0
 10
-0.207100
 20
0.500000
 40
0.000000
 41
0.000000
 42
0.000000
  0
VERTEX
  8
0
 10
0.207100
 20
0.500000
 40
0.000000
 41
0.000000
 42
0.000000
  0
VERTEX
  8
0
 10
0.500000
 20
0.207100
 40
0.000000
 41
0.000000
 42
0.000000
  0
VERTEX
  8
0
 10
0.500000
 20
-0.207100
 40
0.000000
 41
0.000000
 42
0.000000
  0
VERTEX
  8
0
 10
0.207100
 20
-0.500000
 40
0.000000
 41
0.000000
 42
0.000000
  0
VERTEX
  8
0
 10
-0.207100
 20
-0.500000
 40
0.000000
 41
0.000000
 42
0.000000
  0
SEQEND
  0
ENDBLK
  0
BLOCK
  8
0
  2
FIGURE_OBLONG
 70
0
 10
0.000000
 20
0.000000
  0
POLYLINE
  8
0
 66
1
 70
1
 40
0.000000
 41
0.000000
 39
0.000000
  0
VERTEX
  8
0
 10
-0.500000
 20
-0.125000
 40
0.000000
 41
0.000000
 42
0.000000
  0
VERTEX
  8
0
 10
-0.500000
 20
0.125000
 40
0.000000
 41
0.000000
 42
0.000000
  0
VERTEX
  8
0
 10
-0.416000
 20
0.375000
 40
0.000000
 41
0.000000
 42
0.000000
  0
VERTEX
  8
0
 10
-0.250000
 20
0.500000
 40
0.000000
 41
0.000000
 42
0.000000
  0
VERTEX
  8
0
 10
0.250000
 20
0.500000
 40
0.000000
 41
0.000000
 42
0.000000
  0
VERTEX
  8
0
 10
0.416000
 20
0.375000
 40
0.000000
 41
0.000000
 42
0.000000
  0
VERTEX
  8
0
 10
0.500000
 20
0.125000
 40
0.000000
 41
0.000000
 42
0.000000
  0
VERTEX
  8
0
 10
0.500000
 20
-0.125000
 40
0.000000
 41
0.000000
 42
0.000000
  0
VERTEX
  8
0
 10
0.416000
 20
-0.375000
 40
0.000000
 41
0.000000
 42
0.000000
  0
VERTEX
  8
0
 10
0.250000
 20
-0.500000
 40
0.000000
 41
0.000000
 42
0.000000
  0
VERTEX
  8
0
 10
-0.250000
 20
-0.500000
 40
0.000000
 41
0.000000
 42
0.000000
  0
VERTEX
  8
0
 10
-0.416000
 20
-0.375000
 40
0.000000
 41
0.000000
 42
0.000000
  0
SEQEND
  0
ENDBLK
  0
BLOCK
  8
0
  2
FIGURE_TRI
 70
0
 10
0.000000
 20
0.000000
  0
POLYLINE
  8
0
 66
1
 70
1
 40
0.000000
 41
0.000000
 39
0.000000
  0
VERTEX
  8
0
 10
-0.500000
 20
-0.500000
 40
0.000000
 41
0.000000
 42
0.000000
  0
VERTEX
  8
0
 10
0.000000
 20
0.500000
 40
0.000000
 41
0.000000
 42
0.000000
  0
VERTEX
  8
0
 10
0.500000
 20
-0.500000
 40
0.000000
 41
0.000000
 42
0.000000
  0
SEQEND
  0
ENDBLK
  0
BLOCK
  8
0
  2
FIGURE_CROSS
 70
0
 10
0.000000
 20
0.000000
  0
POLYLINE
  8
0
 66
1
 70
0
 40
0.000000
 41
0.000000
 39
0.000000
  0
VERTEX
  8
0
 10
-0.500000
 20
0.000000
 40
0.000000
 41
0.000000
 42
0.000000
  0
VERTEX
  8
0
 10
0.500000
 20
0.000000
 40
0.000000
 41
0.000000
 42
0.000000
  0
SEQEND
  0
POLYLINE
  8
0
 66
1
 70
0
 40
0.000000
 41
0.000000
 39
0.000000
  0
VERTEX
  8
0
 10
0.000000
 20
0.500000
 40
0.000000
 41
0.000000
 42
0.000000
  0
VERTEX
  8
0
 10
0.000000
 20
-0.500000
 40
0.000000
 41
0.000000
 42
0.000000
  0
SEQEND
  0
ENDBLK
  0
BLOCK
  8
0
  2
FIGURE_DIAMOND
 70
0
 10
0.000000
 20
0.000000
  0
POLYLINE
  8
0
 66
1
 70
1
 40
0.000000
 41
0.000000
 39
0.000000
  0
VERTEX
  8
0
 10
-0.500000
 20
0.000000
 40
0.000000
 41
0.000000
 42
0.000000
  0
VERTEX
  8
0
 10
0.000000
 20
0.500000
 40
0.000000
 41
0.000000
 42
0.000000
  0
VERTEX
  8
0
 10
0.500000
 20
0.000000
 40
0.000000
 41
0.000000
 42
0.000000
  0
VERTEX
  8
0
 10
0.000000
 20
-0.500000
 40
0.000000
 41
0.000000
 42
0.000000
  0
SEQEND
  0
ENDBLK
  0
ENDSEC
  0
SECTION
  2
ENTITIES
  0
CIRCLE
  8
PIN_SOLDERMASK_BOTTOM
 10
21.268766
 20
55.115003
 40
0.175006
  0
CIRCLE
  8
PIN_SOLDERMASK_BOTTOM
 10
21.903766
 20
55.115003
 40
0.175006
  0
CIRCLE
  8
PIN_SOLDERMASK_BOTTOM
 10
22.538766
 20
55.115003
 40
0.175006
  0
CIRCLE
  8
PIN_SOLDERMASK_BOTTOM
 10
23.173766
 20
55.115003
 40
0.175006
  0
CIRCLE
  8
PIN_SOLDERMASK_BOTTOM
 10
23.808766
 20
55.115003
 40
0.175006
  0
CIRCLE
  8
PIN_SOLDERMASK_BOTTOM
 10
24.443766
 20
55.115003
 40
0.175006
  0
CIRCLE
  8
PIN_SOLDERMASK_BOTTOM
 10
25.078766
 20
55.115003
 40
0.175006
  0
CIRCLE
  8
PIN_SOLDERMASK_BOTTOM
 10
25.713766
 20
55.115003
 40
0.175006
  0
CIRCLE
  8
PIN_SOLDERMASK_BOTTOM
 10
26.348766
 20
55.115003
 40
0.175006
  0
CIRCLE
  8
PIN_SOLDERMASK_BOTTOM
 10
26.983766
 20
55.115003
 40
0.175006
  0
CIRCLE
  8
PIN_SOLDERMASK_BOTTOM
 10
27.618766
 20
55.115003
 40
0.175006
  0
CIRCLE
  8
PIN_SOLDERMASK_BOTTOM
 10
28.253766
 20
55.115003
 40
0.175006
  0
CIRCLE
  8
PIN_SOLDERMASK_BOTTOM
 10
28.888766
 20
55.115003
 40
0.175006
  0
CIRCLE
  8
PIN_SOLDERMASK_BOTTOM
 10
29.523766
 20
55.115003
 40
0.175006
  0
CIRCLE
  8
PIN_SOLDERMASK_BOTTOM
 10
30.158766
 20
55.115003
 40
0.175006
  0
CIRCLE
  8
PIN_SOLDERMASK_BOTTOM
 10
30.793766
 20
55.115003
 40
0.175006
  0
CIRCLE
  8
PIN_SOLDERMASK_BOTTOM
 10
31.428766
 20
55.115003
 40
0.175006
  0
CIRCLE
  8
PIN_SOLDERMASK_BOTTOM
 10
32.063766
 20
55.115003
 40
0.175006
  0
CIRCLE
  8
PIN_SOLDERMASK_BOTTOM
 10
32.698766
 20
55.115003
 40
0.175006
  0
CIRCLE
  8
PIN_SOLDERMASK_BOTTOM
 10
33.333766
 20
55.115003
 40
0.175006
  0
CIRCLE
  8
PIN_SOLDERMASK_BOTTOM
 10
33.968766
 20
55.115003
 40
0.175006
  0
CIRCLE
  8
PIN_SOLDERMASK_BOTTOM
 10
34.603766
 20
55.115003
 40
0.175006
  0
CIRCLE
  8
PIN_SOLDERMASK_BOTTOM
 10
35.238766
 20
55.115003
 40
0.175006
  0
CIRCLE
  8
PIN_SOLDERMASK_BOTTOM
 10
35.873766
 20
55.115003
 40
0.175006
  0
CIRCLE
  8
PIN_SOLDERMASK_BOTTOM
 10
36.508766
 20
55.115003
 40
0.175006
  0
CIRCLE
  8
PIN_SOLDERMASK_BOTTOM
 10
37.143766
 20
55.115003
 40
0.175006
  0
CIRCLE
  8
PIN_SOLDERMASK_BOTTOM
 10
21.268766
 20
56.075021
 40
0.175006
  0
CIRCLE
  8
PIN_SOLDERMASK_BOTTOM
 10
21.903766
 20
56.075021
 40
0.175006
  0
CIRCLE
  8
PIN_SOLDERMASK_BOTTOM
 10
22.538766
 20
56.075021
 40
0.175006
  0
CIRCLE
  8
PIN_SOLDERMASK_BOTTOM
 10
23.173766
 20
56.075021
 40
0.175006
  0
CIRCLE
  8
PIN_SOLDERMASK_BOTTOM
 10
23.808766
 20
56.075021
 40
0.175006
  0
CIRCLE
  8
PIN_SOLDERMASK_BOTTOM
 10
24.443766
 20
56.075021
 40
0.175006
  0
CIRCLE
  8
PIN_SOLDERMASK_BOTTOM
 10
25.078766
 20
56.075021
 40
0.175006
  0
CIRCLE
  8
PIN_SOLDERMASK_BOTTOM
 10
25.713766
 20
56.075021
 40
0.175006
  0
CIRCLE
  8
PIN_SOLDERMASK_BOTTOM
 10
26.348766
 20
56.075021
 40
0.175006
  0
CIRCLE
  8
PIN_SOLDERMASK_BOTTOM
 10
26.983766
 20
56.075021
 40
0.175006
  0
CIRCLE
  8
PIN_SOLDERMASK_BOTTOM
 10
27.618766
 20
56.075021
 40
0.175006
  0
CIRCLE
  8
PIN_SOLDERMASK_BOTTOM
 10
28.253766
 20
56.075021
 40
0.175006
  0
CIRCLE
  8
PIN_SOLDERMASK_BOTTOM
 10
28.888766
 20
56.075021
 40
0.175006
  0
CIRCLE
  8
PIN_SOLDERMASK_BOTTOM
 10
29.523766
 20
56.075021
 40
0.175006
  0
CIRCLE
  8
PIN_SOLDERMASK_BOTTOM
 10
30.158766
 20
56.075021
 40
0.175006
  0
CIRCLE
  8
PIN_SOLDERMASK_BOTTOM
 10
30.793766
 20
56.075021
 40
0.175006
  0
CIRCLE
  8
PIN_SOLDERMASK_BOTTOM
 10
31.428766
 20
56.075021
 40
0.175006
  0
CIRCLE
  8
PIN_SOLDERMASK_BOTTOM
 10
32.063766
 20
56.075021
 40
0.175006
  0
CIRCLE
  8
PIN_SOLDERMASK_BOTTOM
 10
32.698766
 20
56.075021
 40
0.175006
  0
CIRCLE
  8
PIN_SOLDERMASK_BOTTOM
 10
33.333766
 20
56.075021
 40
0.175006
  0
CIRCLE
  8
PIN_SOLDERMASK_BOTTOM
 10
33.968766
 20
56.075021
 40
0.175006
  0
CIRCLE
  8
PIN_SOLDERMASK_BOTTOM
 10
34.603766
 20
56.075021
 40
0.175006
  0
CIRCLE
  8
PIN_SOLDERMASK_BOTTOM
 10
35.238766
 20
56.075021
 40
0.175006
  0
CIRCLE
  8
PIN_SOLDERMASK_BOTTOM
 10
35.873766
 20
56.075021
 40
0.175006
  0
CIRCLE
  8
PIN_SOLDERMASK_BOTTOM
 10
36.508766
 20
56.075021
 40
0.175006
  0
CIRCLE
  8
PIN_SOLDERMASK_BOTTOM
 10
37.143766
 20
56.075021
 40
0.175006
  0
CIRCLE
  8
PIN_SOLDERMASK_BOTTOM
 10
21.268766
 20
57.655003
 40
0.175006
  0
CIRCLE
  8
PIN_SOLDERMASK_BOTTOM
 10
21.903766
 20
57.655003
 40
0.175006
  0
CIRCLE
  8
PIN_SOLDERMASK_BOTTOM
 10
22.538766
 20
57.655003
 40
0.175006
  0
CIRCLE
  8
PIN_SOLDERMASK_BOTTOM
 10
23.173766
 20
57.655003
 40
0.175006
  0
CIRCLE
  8
PIN_SOLDERMASK_BOTTOM
 10
23.808766
 20
57.655003
 40
0.175006
  0
CIRCLE
  8
PIN_SOLDERMASK_BOTTOM
 10
24.443766
 20
57.655003
 40
0.175006
  0
CIRCLE
  8
PIN_SOLDERMASK_BOTTOM
 10
25.078766
 20
57.655003
 40
0.175006
  0
CIRCLE
  8
PIN_SOLDERMASK_BOTTOM
 10
25.713766
 20
57.655003
 40
0.175006
  0
CIRCLE
  8
PIN_SOLDERMASK_BOTTOM
 10
26.348766
 20
57.655003
 40
0.175006
  0
CIRCLE
  8
PIN_SOLDERMASK_BOTTOM
 10
26.983766
 20
57.655003
 40
0.175006
  0
CIRCLE
  8
PIN_SOLDERMASK_BOTTOM
 10
27.618766
 20
57.655003
 40
0.175006
  0
CIRCLE
  8
PIN_SOLDERMASK_BOTTOM
 10
28.253766
 20
57.655003
 40
0.175006
  0
CIRCLE
  8
PIN_SOLDERMASK_BOTTOM
 10
28.888766
 20
57.655003
 40
0.175006
  0
CIRCLE
  8
PIN_SOLDERMASK_BOTTOM
 10
29.523766
 20
57.655003
 40
0.175006
  0
CIRCLE
  8
PIN_SOLDERMASK_BOTTOM
 10
30.158766
 20
57.655003
 40
0.175006
  0
CIRCLE
  8
PIN_SOLDERMASK_BOTTOM
 10
30.793766
 20
57.655003
 40
0.175006
  0
CIRCLE
  8
PIN_SOLDERMASK_BOTTOM
 10
31.428766
 20
57.655003
 40
0.175006
  0
CIRCLE
  8
PIN_SOLDERMASK_BOTTOM
 10
32.063766
 20
57.655003
 40
0.175006
  0
CIRCLE
  8
PIN_SOLDERMASK_BOTTOM
 10
32.698766
 20
57.655003
 40
0.175006
  0
CIRCLE
  8
PIN_SOLDERMASK_BOTTOM
 10
33.333766
 20
57.655003
 40
0.175006
  0
CIRCLE
  8
PIN_SOLDERMASK_BOTTOM
 10
33.968766
 20
57.655003
 40
0.175006
  0
CIRCLE
  8
PIN_SOLDERMASK_BOTTOM
 10
34.603766
 20
57.655003
 40
0.175006
  0
CIRCLE
  8
PIN_SOLDERMASK_BOTTOM
 10
35.238766
 20
57.655003
 40
0.175006
  0
CIRCLE
  8
PIN_SOLDERMASK_BOTTOM
 10
35.873766
 20
57.655003
 40
0.175006
  0
CIRCLE
  8
PIN_SOLDERMASK_BOTTOM
 10
36.508766
 20
57.655003
 40
0.175006
  0
CIRCLE
  8
PIN_SOLDERMASK_BOTTOM
 10
37.143766
 20
57.655003
 40
0.175006
  0
CIRCLE
  8
PIN_SOLDERMASK_BOTTOM
 10
21.268766
 20
58.615021
 40
0.175006
  0
CIRCLE
  8
PIN_SOLDERMASK_BOTTOM
 10
21.903766
 20
58.615021
 40
0.175006
  0
CIRCLE
  8
PIN_SOLDERMASK_BOTTOM
 10
22.538766
 20
58.615021
 40
0.175006
  0
CIRCLE
  8
PIN_SOLDERMASK_BOTTOM
 10
23.173766
 20
58.615021
 40
0.175006
  0
CIRCLE
  8
PIN_SOLDERMASK_BOTTOM
 10
23.808766
 20
58.615021
 40
0.175006
  0
CIRCLE
  8
PIN_SOLDERMASK_BOTTOM
 10
24.443766
 20
58.615021
 40
0.175006
  0
CIRCLE
  8
PIN_SOLDERMASK_BOTTOM
 10
25.078766
 20
58.615021
 40
0.175006
  0
CIRCLE
  8
PIN_SOLDERMASK_BOTTOM
 10
25.713766
 20
58.615021
 40
0.175006
  0
CIRCLE
  8
PIN_SOLDERMASK_BOTTOM
 10
26.348766
 20
58.615021
 40
0.175006
  0
CIRCLE
  8
PIN_SOLDERMASK_BOTTOM
 10
26.983766
 20
58.615021
 40
0.175006
  0
CIRCLE
  8
PIN_SOLDERMASK_BOTTOM
 10
27.618766
 20
58.615021
 40
0.175006
  0
CIRCLE
  8
PIN_SOLDERMASK_BOTTOM
 10
28.253766
 20
58.615021
 40
0.175006
  0
CIRCLE
  8
PIN_SOLDERMASK_BOTTOM
 10
28.888766
 20
58.615021
 40
0.175006
  0
CIRCLE
  8
PIN_SOLDERMASK_BOTTOM
 10
29.523766
 20
58.615021
 40
0.175006
  0
CIRCLE
  8
PIN_SOLDERMASK_BOTTOM
 10
30.158766
 20
58.615021
 40
0.175006
  0
CIRCLE
  8
PIN_SOLDERMASK_BOTTOM
 10
30.793766
 20
58.615021
 40
0.175006
  0
CIRCLE
  8
PIN_SOLDERMASK_BOTTOM
 10
31.428766
 20
58.615021
 40
0.175006
  0
CIRCLE
  8
PIN_SOLDERMASK_BOTTOM
 10
32.063766
 20
58.615021
 40
0.175006
  0
CIRCLE
  8
PIN_SOLDERMASK_BOTTOM
 10
32.698766
 20
58.615021
 40
0.175006
  0
CIRCLE
  8
PIN_SOLDERMASK_BOTTOM
 10
33.333766
 20
58.615021
 40
0.175006
  0
CIRCLE
  8
PIN_SOLDERMASK_BOTTOM
 10
33.968766
 20
58.615021
 40
0.175006
  0
CIRCLE
  8
PIN_SOLDERMASK_BOTTOM
 10
34.603766
 20
58.615021
 40
0.175006
  0
CIRCLE
  8
PIN_SOLDERMASK_BOTTOM
 10
35.238766
 20
58.615021
 40
0.175006
  0
CIRCLE
  8
PIN_SOLDERMASK_BOTTOM
 10
35.873766
 20
58.615021
 40
0.175006
  0
CIRCLE
  8
PIN_SOLDERMASK_BOTTOM
 10
36.508766
 20
58.615021
 40
0.175006
  0
CIRCLE
  8
PIN_SOLDERMASK_BOTTOM
 10
37.143766
 20
58.615021
 40
0.175006
  0
CIRCLE
  8
PIN_SOLDERMASK_BOTTOM
 10
37.778766
 20
55.115003
 40
0.175006
  0
CIRCLE
  8
PIN_SOLDERMASK_BOTTOM
 10
38.413766
 20
55.115003
 40
0.175006
  0
CIRCLE
  8
PIN_SOLDERMASK_BOTTOM
 10
39.048766
 20
55.115003
 40
0.175006
  0
CIRCLE
  8
PIN_SOLDERMASK_BOTTOM
 10
39.683766
 20
55.115003
 40
0.175006
  0
CIRCLE
  8
PIN_SOLDERMASK_BOTTOM
 10
40.318766
 20
55.115003
 40
0.175006
  0
CIRCLE
  8
PIN_SOLDERMASK_BOTTOM
 10
40.953766
 20
55.115003
 40
0.175006
  0
CIRCLE
  8
PIN_SOLDERMASK_BOTTOM
 10
41.588766
 20
55.115003
 40
0.175006
  0
CIRCLE
  8
PIN_SOLDERMASK_BOTTOM
 10
42.223766
 20
55.115003
 40
0.175006
  0
CIRCLE
  8
PIN_SOLDERMASK_BOTTOM
 10
42.858766
 20
55.115003
 40
0.175006
  0
CIRCLE
  8
PIN_SOLDERMASK_BOTTOM
 10
43.493766
 20
55.115003
 40
0.175006
  0
CIRCLE
  8
PIN_SOLDERMASK_BOTTOM
 10
44.128766
 20
55.115003
 40
0.175006
  0
CIRCLE
  8
PIN_SOLDERMASK_BOTTOM
 10
44.763766
 20
55.115003
 40
0.175006
  0
CIRCLE
  8
PIN_SOLDERMASK_BOTTOM
 10
45.398766
 20
55.115003
 40
0.175006
  0
CIRCLE
  8
PIN_SOLDERMASK_BOTTOM
 10
46.033766
 20
55.115003
 40
0.175006
  0
CIRCLE
  8
PIN_SOLDERMASK_BOTTOM
 10
46.668766
 20
55.115003
 40
0.175006
  0
CIRCLE
  8
PIN_SOLDERMASK_BOTTOM
 10
47.303766
 20
55.115003
 40
0.175006
  0
CIRCLE
  8
PIN_SOLDERMASK_BOTTOM
 10
47.938766
 20
55.115003
 40
0.175006
  0
CIRCLE
  8
PIN_SOLDERMASK_BOTTOM
 10
48.573766
 20
55.115003
 40
0.175006
  0
CIRCLE
  8
PIN_SOLDERMASK_BOTTOM
 10
49.208766
 20
55.115003
 40
0.175006
  0
CIRCLE
  8
PIN_SOLDERMASK_BOTTOM
 10
49.843766
 20
55.115003
 40
0.175006
  0
CIRCLE
  8
PIN_SOLDERMASK_BOTTOM
 10
50.478766
 20
55.115003
 40
0.175006
  0
CIRCLE
  8
PIN_SOLDERMASK_BOTTOM
 10
51.113766
 20
55.115003
 40
0.175006
  0
CIRCLE
  8
PIN_SOLDERMASK_BOTTOM
 10
51.748766
 20
55.115003
 40
0.175006
  0
CIRCLE
  8
PIN_SOLDERMASK_BOTTOM
 10
52.383766
 20
55.115003
 40
0.175006
  0
CIRCLE
  8
PIN_SOLDERMASK_BOTTOM
 10
53.018766
 20
55.115003
 40
0.175006
  0
CIRCLE
  8
PIN_SOLDERMASK_BOTTOM
 10
53.653766
 20
55.115003
 40
0.175006
  0
CIRCLE
  8
PIN_SOLDERMASK_BOTTOM
 10
54.288766
 20
55.115003
 40
0.175006
  0
CIRCLE
  8
PIN_SOLDERMASK_BOTTOM
 10
54.923766
 20
55.115003
 40
0.175006
  0
CIRCLE
  8
PIN_SOLDERMASK_BOTTOM
 10
55.558766
 20
55.115003
 40
0.175006
  0
CIRCLE
  8
PIN_SOLDERMASK_BOTTOM
 10
56.193766
 20
55.115003
 40
0.175006
  0
CIRCLE
  8
PIN_SOLDERMASK_BOTTOM
 10
56.828766
 20
55.115003
 40
0.175006
  0
CIRCLE
  8
PIN_SOLDERMASK_BOTTOM
 10
57.463766
 20
55.115003
 40
0.175006
  0
CIRCLE
  8
PIN_SOLDERMASK_BOTTOM
 10
58.098766
 20
55.115003
 40
0.175006
  0
CIRCLE
  8
PIN_SOLDERMASK_BOTTOM
 10
58.733766
 20
55.115003
 40
0.175006
  0
CIRCLE
  8
PIN_SOLDERMASK_BOTTOM
 10
58.733766
 20
56.075021
 40
0.175006
  0
CIRCLE
  8
PIN_SOLDERMASK_BOTTOM
 10
58.098766
 20
56.075021
 40
0.175006
  0
CIRCLE
  8
PIN_SOLDERMASK_BOTTOM
 10
57.463766
 20
56.075021
 40
0.175006
  0
CIRCLE
  8
PIN_SOLDERMASK_BOTTOM
 10
56.828766
 20
56.075021
 40
0.175006
  0
CIRCLE
  8
PIN_SOLDERMASK_BOTTOM
 10
56.193766
 20
56.075021
 40
0.175006
  0
CIRCLE
  8
PIN_SOLDERMASK_BOTTOM
 10
55.558766
 20
56.075021
 40
0.175006
  0
CIRCLE
  8
PIN_SOLDERMASK_BOTTOM
 10
54.923766
 20
56.075021
 40
0.175006
  0
CIRCLE
  8
PIN_SOLDERMASK_BOTTOM
 10
54.288766
 20
56.075021
 40
0.175006
  0
CIRCLE
  8
PIN_SOLDERMASK_BOTTOM
 10
53.653766
 20
56.075021
 40
0.175006
  0
CIRCLE
  8
PIN_SOLDERMASK_BOTTOM
 10
53.018766
 20
56.075021
 40
0.175006
  0
CIRCLE
  8
PIN_SOLDERMASK_BOTTOM
 10
52.383766
 20
56.075021
 40
0.175006
  0
CIRCLE
  8
PIN_SOLDERMASK_BOTTOM
 10
51.748766
 20
56.075021
 40
0.175006
  0
CIRCLE
  8
PIN_SOLDERMASK_BOTTOM
 10
51.113766
 20
56.075021
 40
0.175006
  0
CIRCLE
  8
PIN_SOLDERMASK_BOTTOM
 10
50.478766
 20
56.075021
 40
0.175006
  0
CIRCLE
  8
PIN_SOLDERMASK_BOTTOM
 10
49.843766
 20
56.075021
 40
0.175006
  0
CIRCLE
  8
PIN_SOLDERMASK_BOTTOM
 10
49.208766
 20
56.075021
 40
0.175006
  0
CIRCLE
  8
PIN_SOLDERMASK_BOTTOM
 10
48.573766
 20
56.075021
 40
0.175006
  0
CIRCLE
  8
PIN_SOLDERMASK_BOTTOM
 10
47.938766
 20
56.075021
 40
0.175006
  0
CIRCLE
  8
PIN_SOLDERMASK_BOTTOM
 10
47.303766
 20
56.075021
 40
0.175006
  0
CIRCLE
  8
PIN_SOLDERMASK_BOTTOM
 10
46.668766
 20
56.075021
 40
0.175006
  0
CIRCLE
  8
PIN_SOLDERMASK_BOTTOM
 10
46.033766
 20
56.075021
 40
0.175006
  0
CIRCLE
  8
PIN_SOLDERMASK_BOTTOM
 10
45.398766
 20
56.075021
 40
0.175006
  0
CIRCLE
  8
PIN_SOLDERMASK_BOTTOM
 10
44.763766
 20
56.075021
 40
0.175006
  0
CIRCLE
  8
PIN_SOLDERMASK_BOTTOM
 10
44.128766
 20
56.075021
 40
0.175006
  0
CIRCLE
  8
PIN_SOLDERMASK_BOTTOM
 10
43.493766
 20
56.075021
 40
0.175006
  0
CIRCLE
  8
PIN_SOLDERMASK_BOTTOM
 10
42.858766
 20
56.075021
 40
0.175006
  0
CIRCLE
  8
PIN_SOLDERMASK_BOTTOM
 10
42.223766
 20
56.075021
 40
0.175006
  0
CIRCLE
  8
PIN_SOLDERMASK_BOTTOM
 10
41.588766
 20
56.075021
 40
0.175006
  0
CIRCLE
  8
PIN_SOLDERMASK_BOTTOM
 10
40.953766
 20
56.075021
 40
0.175006
  0
CIRCLE
  8
PIN_SOLDERMASK_BOTTOM
 10
40.318766
 20
56.075021
 40
0.175006
  0
CIRCLE
  8
PIN_SOLDERMASK_BOTTOM
 10
39.683766
 20
56.075021
 40
0.175006
  0
CIRCLE
  8
PIN_SOLDERMASK_BOTTOM
 10
39.048766
 20
56.075021
 40
0.175006
  0
CIRCLE
  8
PIN_SOLDERMASK_BOTTOM
 10
38.413766
 20
56.075021
 40
0.175006
  0
CIRCLE
  8
PIN_SOLDERMASK_BOTTOM
 10
37.778766
 20
56.075021
 40
0.175006
  0
CIRCLE
  8
PIN_SOLDERMASK_BOTTOM
 10
58.733766
 20
57.655003
 40
0.175006
  0
CIRCLE
  8
PIN_SOLDERMASK_BOTTOM
 10
58.098766
 20
57.655003
 40
0.175006
  0
CIRCLE
  8
PIN_SOLDERMASK_BOTTOM
 10
57.463766
 20
57.655003
 40
0.175006
  0
CIRCLE
  8
PIN_SOLDERMASK_BOTTOM
 10
56.828766
 20
57.655003
 40
0.175006
  0
CIRCLE
  8
PIN_SOLDERMASK_BOTTOM
 10
56.193766
 20
57.655003
 40
0.175006
  0
CIRCLE
  8
PIN_SOLDERMASK_BOTTOM
 10
55.558766
 20
57.655003
 40
0.175006
  0
CIRCLE
  8
PIN_SOLDERMASK_BOTTOM
 10
54.923766
 20
57.655003
 40
0.175006
  0
CIRCLE
  8
PIN_SOLDERMASK_BOTTOM
 10
54.288766
 20
57.655003
 40
0.175006
  0
CIRCLE
  8
PIN_SOLDERMASK_BOTTOM
 10
53.653766
 20
57.655003
 40
0.175006
  0
CIRCLE
  8
PIN_SOLDERMASK_BOTTOM
 10
53.018766
 20
57.655003
 40
0.175006
  0
CIRCLE
  8
PIN_SOLDERMASK_BOTTOM
 10
52.383766
 20
57.655003
 40
0.175006
  0
CIRCLE
  8
PIN_SOLDERMASK_BOTTOM
 10
51.748766
 20
57.655003
 40
0.175006
  0
CIRCLE
  8
PIN_SOLDERMASK_BOTTOM
 10
51.113766
 20
57.655003
 40
0.175006
  0
CIRCLE
  8
PIN_SOLDERMASK_BOTTOM
 10
50.478766
 20
57.655003
 40
0.175006
  0
CIRCLE
  8
PIN_SOLDERMASK_BOTTOM
 10
49.843766
 20
57.655003
 40
0.175006
  0
CIRCLE
  8
PIN_SOLDERMASK_BOTTOM
 10
49.208766
 20
57.655003
 40
0.175006
  0
CIRCLE
  8
PIN_SOLDERMASK_BOTTOM
 10
48.573766
 20
57.655003
 40
0.175006
  0
CIRCLE
  8
PIN_SOLDERMASK_BOTTOM
 10
47.938766
 20
57.655003
 40
0.175006
  0
CIRCLE
  8
PIN_SOLDERMASK_BOTTOM
 10
47.303766
 20
57.655003
 40
0.175006
  0
CIRCLE
  8
PIN_SOLDERMASK_BOTTOM
 10
46.668766
 20
57.655003
 40
0.175006
  0
CIRCLE
  8
PIN_SOLDERMASK_BOTTOM
 10
46.033766
 20
57.655003
 40
0.175006
  0
CIRCLE
  8
PIN_SOLDERMASK_BOTTOM
 10
45.398766
 20
57.655003
 40
0.175006
  0
CIRCLE
  8
PIN_SOLDERMASK_BOTTOM
 10
44.763766
 20
57.655003
 40
0.175006
  0
CIRCLE
  8
PIN_SOLDERMASK_BOTTOM
 10
44.128766
 20
57.655003
 40
0.175006
  0
CIRCLE
  8
PIN_SOLDERMASK_BOTTOM
 10
43.493766
 20
57.655003
 40
0.175006
  0
CIRCLE
  8
PIN_SOLDERMASK_BOTTOM
 10
42.858766
 20
57.655003
 40
0.175006
  0
CIRCLE
  8
PIN_SOLDERMASK_BOTTOM
 10
42.223766
 20
57.655003
 40
0.175006
  0
CIRCLE
  8
PIN_SOLDERMASK_BOTTOM
 10
41.588766
 20
57.655003
 40
0.175006
  0
CIRCLE
  8
PIN_SOLDERMASK_BOTTOM
 10
40.953766
 20
57.655003
 40
0.175006
  0
CIRCLE
  8
PIN_SOLDERMASK_BOTTOM
 10
40.318766
 20
57.655003
 40
0.175006
  0
CIRCLE
  8
PIN_SOLDERMASK_BOTTOM
 10
39.683766
 20
57.655003
 40
0.175006
  0
CIRCLE
  8
PIN_SOLDERMASK_BOTTOM
 10
39.048766
 20
57.655003
 40
0.175006
  0
CIRCLE
  8
PIN_SOLDERMASK_BOTTOM
 10
38.413766
 20
57.655003
 40
0.175006
  0
CIRCLE
  8
PIN_SOLDERMASK_BOTTOM
 10
37.778766
 20
57.655003
 40
0.175006
  0
CIRCLE
  8
PIN_SOLDERMASK_BOTTOM
 10
58.733766
 20
58.615021
 40
0.175006
  0
CIRCLE
  8
PIN_SOLDERMASK_BOTTOM
 10
58.098766
 20
58.615021
 40
0.175006
  0
CIRCLE
  8
PIN_SOLDERMASK_BOTTOM
 10
57.463766
 20
58.615021
 40
0.175006
  0
CIRCLE
  8
PIN_SOLDERMASK_BOTTOM
 10
56.828766
 20
58.615021
 40
0.175006
  0
CIRCLE
  8
PIN_SOLDERMASK_BOTTOM
 10
56.193766
 20
58.615021
 40
0.175006
  0
CIRCLE
  8
PIN_SOLDERMASK_BOTTOM
 10
55.558766
 20
58.615021
 40
0.175006
  0
CIRCLE
  8
PIN_SOLDERMASK_BOTTOM
 10
54.923766
 20
58.615021
 40
0.175006
  0
CIRCLE
  8
PIN_SOLDERMASK_BOTTOM
 10
54.288766
 20
58.615021
 40
0.175006
  0
CIRCLE
  8
PIN_SOLDERMASK_BOTTOM
 10
53.653766
 20
58.615021
 40
0.175006
  0
CIRCLE
  8
PIN_SOLDERMASK_BOTTOM
 10
53.018766
 20
58.615021
 40
0.175006
  0
CIRCLE
  8
PIN_SOLDERMASK_BOTTOM
 10
52.383766
 20
58.615021
 40
0.175006
  0
CIRCLE
  8
PIN_SOLDERMASK_BOTTOM
 10
51.748766
 20
58.615021
 40
0.175006
  0
CIRCLE
  8
PIN_SOLDERMASK_BOTTOM
 10
51.113766
 20
58.615021
 40
0.175006
  0
CIRCLE
  8
PIN_SOLDERMASK_BOTTOM
 10
50.478766
 20
58.615021
 40
0.175006
  0
CIRCLE
  8
PIN_SOLDERMASK_BOTTOM
 10
49.843766
 20
58.615021
 40
0.175006
  0
CIRCLE
  8
PIN_SOLDERMASK_BOTTOM
 10
49.208766
 20
58.615021
 40
0.175006
  0
CIRCLE
  8
PIN_SOLDERMASK_BOTTOM
 10
48.573766
 20
58.615021
 40
0.175006
  0
CIRCLE
  8
PIN_SOLDERMASK_BOTTOM
 10
47.938766
 20
58.615021
 40
0.175006
  0
CIRCLE
  8
PIN_SOLDERMASK_BOTTOM
 10
47.303766
 20
58.615021
 40
0.175006
  0
CIRCLE
  8
PIN_SOLDERMASK_BOTTOM
 10
46.668766
 20
58.615021
 40
0.175006
  0
CIRCLE
  8
PIN_SOLDERMASK_BOTTOM
 10
46.033766
 20
58.615021
 40
0.175006
  0
CIRCLE
  8
PIN_SOLDERMASK_BOTTOM
 10
45.398766
 20
58.615021
 40
0.175006
  0
CIRCLE
  8
PIN_SOLDERMASK_BOTTOM
 10
44.763766
 20
58.615021
 40
0.175006
  0
CIRCLE
  8
PIN_SOLDERMASK_BOTTOM
 10
44.128766
 20
58.615021
 40
0.175006
  0
CIRCLE
  8
PIN_SOLDERMASK_BOTTOM
 10
43.493766
 20
58.615021
 40
0.175006
  0
CIRCLE
  8
PIN_SOLDERMASK_BOTTOM
 10
42.858766
 20
58.615021
 40
0.175006
  0
CIRCLE
  8
PIN_SOLDERMASK_BOTTOM
 10
42.223766
 20
58.615021
 40
0.175006
  0
CIRCLE
  8
PIN_SOLDERMASK_BOTTOM
 10
41.588766
 20
58.615021
 40
0.175006
  0
CIRCLE
  8
PIN_SOLDERMASK_BOTTOM
 10
40.953766
 20
58.615021
 40
0.175006
  0
CIRCLE
  8
PIN_SOLDERMASK_BOTTOM
 10
40.318766
 20
58.615021
 40
0.175006
  0
CIRCLE
  8
PIN_SOLDERMASK_BOTTOM
 10
39.683766
 20
58.615021
 40
0.175006
  0
CIRCLE
  8
PIN_SOLDERMASK_BOTTOM
 10
39.048766
 20
58.615021
 40
0.175006
  0
CIRCLE
  8
PIN_SOLDERMASK_BOTTOM
 10
38.413766
 20
58.615021
 40
0.175006
  0
CIRCLE
  8
PIN_SOLDERMASK_BOTTOM
 10
37.778766
 20
58.615021
 40
0.175006
  0
POLYLINE
  8
PG_ASSEMBLY_BOTTOM
 66
1
 70
1
 40
0.000000
 41
0.000000
 39
0.000000
  0
VERTEX
  8
PG_ASSEMBLY_BOTTOM
 10
61.411256
 20
54.365017
 40
0.000000
 41
0.000000
 42
0.000000
  0
VERTEX
  8
PG_ASSEMBLY_BOTTOM
 10
61.411256
 20
59.365007
 40
0.000000
 41
0.000000
 42
0.000000
  0
VERTEX
  8
PG_ASSEMBLY_BOTTOM
 10
18.591276
 20
59.365007
 40
0.000000
 41
0.000000
 42
0.000000
  0
VERTEX
  8
PG_ASSEMBLY_BOTTOM
 10
18.591276
 20
54.365017
 40
0.000000
 41
0.000000
 42
0.000000
  0
SEQEND
  0
TEXT
  8
PG_SILKSCREEN_BOTTOM
 10
18.239207
 20
58.278624
 11
0.000000
 21
0.000000
 40
0.635000
 41
1.080000
 50
0.000000
  7
STANDARD
 71
2
 72
0
  1
D
 73
0
  0
TEXT
  8
PG_SILKSCREEN_BOTTOM
 10
18.239207
 20
57.318631
 11
0.000000
 21
0.000000
 40
0.635000
 41
1.080000
 50
0.000000
  7
STANDARD
 71
2
 72
0
  1
C
 73
0
  0
TEXT
  8
PG_SILKSCREEN_BOTTOM
 10
18.239207
 20
55.738624
 11
0.000000
 21
0.000000
 40
0.635000
 41
1.080000
 50
0.000000
  7
STANDARD
 71
2
 72
0
  1
B
 73
0
  0
TEXT
  8
PG_SILKSCREEN_BOTTOM
 10
55.815967
 20
53.458720
 11
0.000000
 21
0.000000
 40
0.635000
 41
1.080000
 50
0.000000
  7
STANDARD
 71
2
 72
0
  1
55
 73
0
  0
TEXT
  8
PG_SILKSCREEN_BOTTOM
 10
46.290967
 20
53.458720
 11
0.000000
 21
0.000000
 40
0.635000
 41
1.080000
 50
0.000000
  7
STANDARD
 71
2
 72
0
  1
40
 73
0
  0
TEXT
  8
PG_SILKSCREEN_BOTTOM
 10
52.640967
 20
53.458720
 11
0.000000
 21
0.000000
 40
0.635000
 41
1.080000
 50
0.000000
  7
STANDARD
 71
2
 72
0
  1
50
 73
0
  0
TEXT
  8
PG_SILKSCREEN_BOTTOM
 10
43.115967
 20
53.458720
 11
0.000000
 21
0.000000
 40
0.635000
 41
1.080000
 50
0.000000
  7
STANDARD
 71
2
 72
0
  1
35
 73
0
  0
TEXT
  8
PG_SILKSCREEN_BOTTOM
 10
39.940967
 20
53.458720
 11
0.000000
 21
0.000000
 40
0.635000
 41
1.080000
 50
0.000000
  7
STANDARD
 71
2
 72
0
  1
30
 73
0
  0
TEXT
  8
PG_SILKSCREEN_BOTTOM
 10
49.465967
 20
53.458720
 11
0.000000
 21
0.000000
 40
0.635000
 41
1.080000
 50
0.000000
  7
STANDARD
 71
2
 72
0
  1
45
 73
0
  0
TEXT
  8
PG_SILKSCREEN_BOTTOM
 10
33.590967
 20
53.458720
 11
0.000000
 21
0.000000
 40
0.635000
 41
1.080000
 50
0.000000
  7
STANDARD
 71
2
 72
0
  1
20
 73
0
  0
TEXT
  8
PG_SILKSCREEN_BOTTOM
 10
36.765967
 20
53.458720
 11
0.000000
 21
0.000000
 40
0.635000
 41
1.080000
 50
0.000000
  7
STANDARD
 71
2
 72
0
  1
25
 73
0
  0
TEXT
  8
PG_SILKSCREEN_BOTTOM
 10
30.187367
 20
53.458720
 11
0.000000
 21
0.000000
 40
0.635000
 41
1.080000
 50
0.000000
  7
STANDARD
 71
2
 72
0
  1
15
 73
0
  0
TEXT
  8
PG_SILKSCREEN_BOTTOM
 10
58.762367
 20
53.458720
 11
0.000000
 21
0.000000
 40
0.635000
 41
1.080000
 50
0.000000
  7
STANDARD
 71
2
 72
0
  1
60
 73
0
  0
TEXT
  8
PG_SILKSCREEN_BOTTOM
 10
27.012367
 20
53.458720
 11
0.000000
 21
0.000000
 40
0.635000
 41
1.080000
 50
0.000000
  7
STANDARD
 71
2
 72
0
  1
10
 73
0
  0
TEXT
  8
PG_SILKSCREEN_BOTTOM
 10
24.354866
 20
53.503703
 11
0.000000
 21
0.000000
 40
0.635000
 41
1.080000
 50
0.000000
  7
STANDARD
 71
2
 72
0
  1
5
 73
0
  0
TEXT
  8
PG_SILKSCREEN_BOTTOM
 10
21.424367
 20
53.577211
 11
0.000000
 21
0.000000
 40
0.635000
 41
1.080000
 50
0.000000
  7
STANDARD
 71
2
 72
0
  1
1
 73
0
  0
TEXT
  8
PG_SILKSCREEN_BOTTOM
 10
18.239207
 20
54.778631
 11
0.000000
 21
0.000000
 40
0.635000
 41
1.080000
 50
0.000000
  7
STANDARD
 71
2
 72
0
  1
A
 73
0
  0
CIRCLE
  8
PIN_SOLDERMASK_BOTTOM
 10
21.268766
 20
-18.614974
 40
0.175006
  0
CIRCLE
  8
PIN_SOLDERMASK_BOTTOM
 10
21.903766
 20
-18.614974
 40
0.175006
  0
CIRCLE
  8
PIN_SOLDERMASK_BOTTOM
 10
22.538766
 20
-18.614974
 40
0.175006
  0
CIRCLE
  8
PIN_SOLDERMASK_BOTTOM
 10
23.173766
 20
-18.614974
 40
0.175006
  0
CIRCLE
  8
PIN_SOLDERMASK_BOTTOM
 10
23.808766
 20
-18.614974
 40
0.175006
  0
CIRCLE
  8
PIN_SOLDERMASK_BOTTOM
 10
24.443766
 20
-18.614974
 40
0.175006
  0
CIRCLE
  8
PIN_SOLDERMASK_BOTTOM
 10
25.078766
 20
-18.614974
 40
0.175006
  0
CIRCLE
  8
PIN_SOLDERMASK_BOTTOM
 10
25.713766
 20
-18.614974
 40
0.175006
  0
CIRCLE
  8
PIN_SOLDERMASK_BOTTOM
 10
26.348766
 20
-18.614974
 40
0.175006
  0
CIRCLE
  8
PIN_SOLDERMASK_BOTTOM
 10
26.983766
 20
-18.614974
 40
0.175006
  0
CIRCLE
  8
PIN_SOLDERMASK_BOTTOM
 10
27.618766
 20
-18.614974
 40
0.175006
  0
CIRCLE
  8
PIN_SOLDERMASK_BOTTOM
 10
28.253766
 20
-18.614974
 40
0.175006
  0
CIRCLE
  8
PIN_SOLDERMASK_BOTTOM
 10
28.888766
 20
-18.614974
 40
0.175006
  0
CIRCLE
  8
PIN_SOLDERMASK_BOTTOM
 10
29.523766
 20
-18.614974
 40
0.175006
  0
CIRCLE
  8
PIN_SOLDERMASK_BOTTOM
 10
30.158766
 20
-18.614974
 40
0.175006
  0
CIRCLE
  8
PIN_SOLDERMASK_BOTTOM
 10
30.793766
 20
-18.614974
 40
0.175006
  0
CIRCLE
  8
PIN_SOLDERMASK_BOTTOM
 10
31.428766
 20
-18.614974
 40
0.175006
  0
CIRCLE
  8
PIN_SOLDERMASK_BOTTOM
 10
32.063766
 20
-18.614974
 40
0.175006
  0
CIRCLE
  8
PIN_SOLDERMASK_BOTTOM
 10
32.698766
 20
-18.614974
 40
0.175006
  0
CIRCLE
  8
PIN_SOLDERMASK_BOTTOM
 10
33.333766
 20
-18.614974
 40
0.175006
  0
CIRCLE
  8
PIN_SOLDERMASK_BOTTOM
 10
33.968766
 20
-18.614974
 40
0.175006
  0
CIRCLE
  8
PIN_SOLDERMASK_BOTTOM
 10
34.603766
 20
-18.614974
 40
0.175006
  0
CIRCLE
  8
PIN_SOLDERMASK_BOTTOM
 10
35.238766
 20
-18.614974
 40
0.175006
  0
CIRCLE
  8
PIN_SOLDERMASK_BOTTOM
 10
35.873766
 20
-18.614974
 40
0.175006
  0
CIRCLE
  8
PIN_SOLDERMASK_BOTTOM
 10
36.508766
 20
-18.614974
 40
0.175006
  0
CIRCLE
  8
PIN_SOLDERMASK_BOTTOM
 10
37.143766
 20
-18.614974
 40
0.175006
  0
CIRCLE
  8
PIN_SOLDERMASK_BOTTOM
 10
21.268766
 20
-17.654956
 40
0.175006
  0
CIRCLE
  8
PIN_SOLDERMASK_BOTTOM
 10
21.903766
 20
-17.654956
 40
0.175006
  0
CIRCLE
  8
PIN_SOLDERMASK_BOTTOM
 10
22.538766
 20
-17.654956
 40
0.175006
  0
CIRCLE
  8
PIN_SOLDERMASK_BOTTOM
 10
23.173766
 20
-17.654956
 40
0.175006
  0
CIRCLE
  8
PIN_SOLDERMASK_BOTTOM
 10
23.808766
 20
-17.654956
 40
0.175006
  0
CIRCLE
  8
PIN_SOLDERMASK_BOTTOM
 10
24.443766
 20
-17.654956
 40
0.175006
  0
CIRCLE
  8
PIN_SOLDERMASK_BOTTOM
 10
25.078766
 20
-17.654956
 40
0.175006
  0
CIRCLE
  8
PIN_SOLDERMASK_BOTTOM
 10
25.713766
 20
-17.654956
 40
0.175006
  0
CIRCLE
  8
PIN_SOLDERMASK_BOTTOM
 10
26.348766
 20
-17.654956
 40
0.175006
  0
CIRCLE
  8
PIN_SOLDERMASK_BOTTOM
 10
26.983766
 20
-17.654956
 40
0.175006
  0
CIRCLE
  8
PIN_SOLDERMASK_BOTTOM
 10
27.618766
 20
-17.654956
 40
0.175006
  0
CIRCLE
  8
PIN_SOLDERMASK_BOTTOM
 10
28.253766
 20
-17.654956
 40
0.175006
  0
CIRCLE
  8
PIN_SOLDERMASK_BOTTOM
 10
28.888766
 20
-17.654956
 40
0.175006
  0
CIRCLE
  8
PIN_SOLDERMASK_BOTTOM
 10
29.523766
 20
-17.654956
 40
0.175006
  0
CIRCLE
  8
PIN_SOLDERMASK_BOTTOM
 10
30.158766
 20
-17.654956
 40
0.175006
  0
CIRCLE
  8
PIN_SOLDERMASK_BOTTOM
 10
30.793766
 20
-17.654956
 40
0.175006
  0
CIRCLE
  8
PIN_SOLDERMASK_BOTTOM
 10
31.428766
 20
-17.654956
 40
0.175006
  0
CIRCLE
  8
PIN_SOLDERMASK_BOTTOM
 10
32.063766
 20
-17.654956
 40
0.175006
  0
CIRCLE
  8
PIN_SOLDERMASK_BOTTOM
 10
32.698766
 20
-17.654956
 40
0.175006
  0
CIRCLE
  8
PIN_SOLDERMASK_BOTTOM
 10
33.333766
 20
-17.654956
 40
0.175006
  0
CIRCLE
  8
PIN_SOLDERMASK_BOTTOM
 10
33.968766
 20
-17.654956
 40
0.175006
  0
CIRCLE
  8
PIN_SOLDERMASK_BOTTOM
 10
34.603766
 20
-17.654956
 40
0.175006
  0
CIRCLE
  8
PIN_SOLDERMASK_BOTTOM
 10
35.238766
 20
-17.654956
 40
0.175006
  0
CIRCLE
  8
PIN_SOLDERMASK_BOTTOM
 10
35.873766
 20
-17.654956
 40
0.175006
  0
CIRCLE
  8
PIN_SOLDERMASK_BOTTOM
 10
36.508766
 20
-17.654956
 40
0.175006
  0
CIRCLE
  8
PIN_SOLDERMASK_BOTTOM
 10
37.143766
 20
-17.654956
 40
0.175006
  0
CIRCLE
  8
PIN_SOLDERMASK_BOTTOM
 10
21.268766
 20
-16.074974
 40
0.175006
  0
CIRCLE
  8
PIN_SOLDERMASK_BOTTOM
 10
21.903766
 20
-16.074974
 40
0.175006
  0
CIRCLE
  8
PIN_SOLDERMASK_BOTTOM
 10
22.538766
 20
-16.074974
 40
0.175006
  0
CIRCLE
  8
PIN_SOLDERMASK_BOTTOM
 10
23.173766
 20
-16.074974
 40
0.175006
  0
CIRCLE
  8
PIN_SOLDERMASK_BOTTOM
 10
23.808766
 20
-16.074974
 40
0.175006
  0
CIRCLE
  8
PIN_SOLDERMASK_BOTTOM
 10
24.443766
 20
-16.074974
 40
0.175006
  0
CIRCLE
  8
PIN_SOLDERMASK_BOTTOM
 10
25.078766
 20
-16.074974
 40
0.175006
  0
CIRCLE
  8
PIN_SOLDERMASK_BOTTOM
 10
25.713766
 20
-16.074974
 40
0.175006
  0
CIRCLE
  8
PIN_SOLDERMASK_BOTTOM
 10
26.348766
 20
-16.074974
 40
0.175006
  0
CIRCLE
  8
PIN_SOLDERMASK_BOTTOM
 10
26.983766
 20
-16.074974
 40
0.175006
  0
CIRCLE
  8
PIN_SOLDERMASK_BOTTOM
 10
27.618766
 20
-16.074974
 40
0.175006
  0
CIRCLE
  8
PIN_SOLDERMASK_BOTTOM
 10
28.253766
 20
-16.074974
 40
0.175006
  0
CIRCLE
  8
PIN_SOLDERMASK_BOTTOM
 10
28.888766
 20
-16.074974
 40
0.175006
  0
CIRCLE
  8
PIN_SOLDERMASK_BOTTOM
 10
29.523766
 20
-16.074974
 40
0.175006
  0
CIRCLE
  8
PIN_SOLDERMASK_BOTTOM
 10
30.158766
 20
-16.074974
 40
0.175006
  0
CIRCLE
  8
PIN_SOLDERMASK_BOTTOM
 10
30.793766
 20
-16.074974
 40
0.175006
  0
CIRCLE
  8
PIN_SOLDERMASK_BOTTOM
 10
31.428766
 20
-16.074974
 40
0.175006
  0
CIRCLE
  8
PIN_SOLDERMASK_BOTTOM
 10
32.063766
 20
-16.074974
 40
0.175006
  0
CIRCLE
  8
PIN_SOLDERMASK_BOTTOM
 10
32.698766
 20
-16.074974
 40
0.175006
  0
CIRCLE
  8
PIN_SOLDERMASK_BOTTOM
 10
33.333766
 20
-16.074974
 40
0.175006
  0
CIRCLE
  8
PIN_SOLDERMASK_BOTTOM
 10
33.968766
 20
-16.074974
 40
0.175006
  0
CIRCLE
  8
PIN_SOLDERMASK_BOTTOM
 10
34.603766
 20
-16.074974
 40
0.175006
  0
CIRCLE
  8
PIN_SOLDERMASK_BOTTOM
 10
35.238766
 20
-16.074974
 40
0.175006
  0
CIRCLE
  8
PIN_SOLDERMASK_BOTTOM
 10
35.873766
 20
-16.074974
 40
0.175006
  0
CIRCLE
  8
PIN_SOLDERMASK_BOTTOM
 10
36.508766
 20
-16.074974
 40
0.175006
  0
CIRCLE
  8
PIN_SOLDERMASK_BOTTOM
 10
37.143766
 20
-16.074974
 40
0.175006
  0
CIRCLE
  8
PIN_SOLDERMASK_BOTTOM
 10
21.268766
 20
-15.114956
 40
0.175006
  0
CIRCLE
  8
PIN_SOLDERMASK_BOTTOM
 10
21.903766
 20
-15.114956
 40
0.175006
  0
CIRCLE
  8
PIN_SOLDERMASK_BOTTOM
 10
22.538766
 20
-15.114956
 40
0.175006
  0
CIRCLE
  8
PIN_SOLDERMASK_BOTTOM
 10
23.173766
 20
-15.114956
 40
0.175006
  0
CIRCLE
  8
PIN_SOLDERMASK_BOTTOM
 10
23.808766
 20
-15.114956
 40
0.175006
  0
CIRCLE
  8
PIN_SOLDERMASK_BOTTOM
 10
24.443766
 20
-15.114956
 40
0.175006
  0
CIRCLE
  8
PIN_SOLDERMASK_BOTTOM
 10
25.078766
 20
-15.114956
 40
0.175006
  0
CIRCLE
  8
PIN_SOLDERMASK_BOTTOM
 10
25.713766
 20
-15.114956
 40
0.175006
  0
CIRCLE
  8
PIN_SOLDERMASK_BOTTOM
 10
26.348766
 20
-15.114956
 40
0.175006
  0
CIRCLE
  8
PIN_SOLDERMASK_BOTTOM
 10
26.983766
 20
-15.114956
 40
0.175006
  0
CIRCLE
  8
PIN_SOLDERMASK_BOTTOM
 10
27.618766
 20
-15.114956
 40
0.175006
  0
CIRCLE
  8
PIN_SOLDERMASK_BOTTOM
 10
28.253766
 20
-15.114956
 40
0.175006
  0
CIRCLE
  8
PIN_SOLDERMASK_BOTTOM
 10
28.888766
 20
-15.114956
 40
0.175006
  0
CIRCLE
  8
PIN_SOLDERMASK_BOTTOM
 10
29.523766
 20
-15.114956
 40
0.175006
  0
CIRCLE
  8
PIN_SOLDERMASK_BOTTOM
 10
30.158766
 20
-15.114956
 40
0.175006
  0
CIRCLE
  8
PIN_SOLDERMASK_BOTTOM
 10
30.793766
 20
-15.114956
 40
0.175006
  0
CIRCLE
  8
PIN_SOLDERMASK_BOTTOM
 10
31.428766
 20
-15.114956
 40
0.175006
  0
CIRCLE
  8
PIN_SOLDERMASK_BOTTOM
 10
32.063766
 20
-15.114956
 40
0.175006
  0
CIRCLE
  8
PIN_SOLDERMASK_BOTTOM
 10
32.698766
 20
-15.114956
 40
0.175006
  0
CIRCLE
  8
PIN_SOLDERMASK_BOTTOM
 10
33.333766
 20
-15.114956
 40
0.175006
  0
CIRCLE
  8
PIN_SOLDERMASK_BOTTOM
 10
33.968766
 20
-15.114956
 40
0.175006
  0
CIRCLE
  8
PIN_SOLDERMASK_BOTTOM
 10
34.603766
 20
-15.114956
 40
0.175006
  0
CIRCLE
  8
PIN_SOLDERMASK_BOTTOM
 10
35.238766
 20
-15.114956
 40
0.175006
  0
CIRCLE
  8
PIN_SOLDERMASK_BOTTOM
 10
35.873766
 20
-15.114956
 40
0.175006
  0
CIRCLE
  8
PIN_SOLDERMASK_BOTTOM
 10
36.508766
 20
-15.114956
 40
0.175006
  0
CIRCLE
  8
PIN_SOLDERMASK_BOTTOM
 10
37.143766
 20
-15.114956
 40
0.175006
  0
CIRCLE
  8
PIN_SOLDERMASK_BOTTOM
 10
37.778766
 20
-18.614974
 40
0.175006
  0
CIRCLE
  8
PIN_SOLDERMASK_BOTTOM
 10
38.413766
 20
-18.614974
 40
0.175006
  0
CIRCLE
  8
PIN_SOLDERMASK_BOTTOM
 10
39.048766
 20
-18.614974
 40
0.175006
  0
CIRCLE
  8
PIN_SOLDERMASK_BOTTOM
 10
39.683766
 20
-18.614974
 40
0.175006
  0
CIRCLE
  8
PIN_SOLDERMASK_BOTTOM
 10
40.318766
 20
-18.614974
 40
0.175006
  0
CIRCLE
  8
PIN_SOLDERMASK_BOTTOM
 10
40.953766
 20
-18.614974
 40
0.175006
  0
CIRCLE
  8
PIN_SOLDERMASK_BOTTOM
 10
41.588766
 20
-18.614974
 40
0.175006
  0
CIRCLE
  8
PIN_SOLDERMASK_BOTTOM
 10
42.223766
 20
-18.614974
 40
0.175006
  0
CIRCLE
  8
PIN_SOLDERMASK_BOTTOM
 10
42.858766
 20
-18.614974
 40
0.175006
  0
CIRCLE
  8
PIN_SOLDERMASK_BOTTOM
 10
43.493766
 20
-18.614974
 40
0.175006
  0
CIRCLE
  8
PIN_SOLDERMASK_BOTTOM
 10
44.128766
 20
-18.614974
 40
0.175006
  0
CIRCLE
  8
PIN_SOLDERMASK_BOTTOM
 10
44.763766
 20
-18.614974
 40
0.175006
  0
CIRCLE
  8
PIN_SOLDERMASK_BOTTOM
 10
45.398766
 20
-18.614974
 40
0.175006
  0
CIRCLE
  8
PIN_SOLDERMASK_BOTTOM
 10
46.033766
 20
-18.614974
 40
0.175006
  0
CIRCLE
  8
PIN_SOLDERMASK_BOTTOM
 10
46.668766
 20
-18.614974
 40
0.175006
  0
CIRCLE
  8
PIN_SOLDERMASK_BOTTOM
 10
47.303766
 20
-18.614974
 40
0.175006
  0
CIRCLE
  8
PIN_SOLDERMASK_BOTTOM
 10
47.938766
 20
-18.614974
 40
0.175006
  0
CIRCLE
  8
PIN_SOLDERMASK_BOTTOM
 10
48.573766
 20
-18.614974
 40
0.175006
  0
CIRCLE
  8
PIN_SOLDERMASK_BOTTOM
 10
49.208766
 20
-18.614974
 40
0.175006
  0
CIRCLE
  8
PIN_SOLDERMASK_BOTTOM
 10
49.843766
 20
-18.614974
 40
0.175006
  0
CIRCLE
  8
PIN_SOLDERMASK_BOTTOM
 10
50.478766
 20
-18.614974
 40
0.175006
  0
CIRCLE
  8
PIN_SOLDERMASK_BOTTOM
 10
51.113766
 20
-18.614974
 40
0.175006
  0
CIRCLE
  8
PIN_SOLDERMASK_BOTTOM
 10
51.748766
 20
-18.614974
 40
0.175006
  0
CIRCLE
  8
PIN_SOLDERMASK_BOTTOM
 10
52.383766
 20
-18.614974
 40
0.175006
  0
CIRCLE
  8
PIN_SOLDERMASK_BOTTOM
 10
53.018766
 20
-18.614974
 40
0.175006
  0
CIRCLE
  8
PIN_SOLDERMASK_BOTTOM
 10
53.653766
 20
-18.614974
 40
0.175006
  0
CIRCLE
  8
PIN_SOLDERMASK_BOTTOM
 10
54.288766
 20
-18.614974
 40
0.175006
  0
CIRCLE
  8
PIN_SOLDERMASK_BOTTOM
 10
54.923766
 20
-18.614974
 40
0.175006
  0
CIRCLE
  8
PIN_SOLDERMASK_BOTTOM
 10
55.558766
 20
-18.614974
 40
0.175006
  0
CIRCLE
  8
PIN_SOLDERMASK_BOTTOM
 10
56.193766
 20
-18.614974
 40
0.175006
  0
CIRCLE
  8
PIN_SOLDERMASK_BOTTOM
 10
56.828766
 20
-18.614974
 40
0.175006
  0
CIRCLE
  8
PIN_SOLDERMASK_BOTTOM
 10
57.463766
 20
-18.614974
 40
0.175006
  0
CIRCLE
  8
PIN_SOLDERMASK_BOTTOM
 10
58.098766
 20
-18.614974
 40
0.175006
  0
CIRCLE
  8
PIN_SOLDERMASK_BOTTOM
 10
58.733766
 20
-18.614974
 40
0.175006
  0
CIRCLE
  8
PIN_SOLDERMASK_BOTTOM
 10
58.733766
 20
-17.654956
 40
0.175006
  0
CIRCLE
  8
PIN_SOLDERMASK_BOTTOM
 10
58.098766
 20
-17.654956
 40
0.175006
  0
CIRCLE
  8
PIN_SOLDERMASK_BOTTOM
 10
57.463766
 20
-17.654956
 40
0.175006
  0
CIRCLE
  8
PIN_SOLDERMASK_BOTTOM
 10
56.828766
 20
-17.654956
 40
0.175006
  0
CIRCLE
  8
PIN_SOLDERMASK_BOTTOM
 10
56.193766
 20
-17.654956
 40
0.175006
  0
CIRCLE
  8
PIN_SOLDERMASK_BOTTOM
 10
55.558766
 20
-17.654956
 40
0.175006
  0
CIRCLE
  8
PIN_SOLDERMASK_BOTTOM
 10
54.923766
 20
-17.654956
 40
0.175006
  0
CIRCLE
  8
PIN_SOLDERMASK_BOTTOM
 10
54.288766
 20
-17.654956
 40
0.175006
  0
CIRCLE
  8
PIN_SOLDERMASK_BOTTOM
 10
53.653766
 20
-17.654956
 40
0.175006
  0
CIRCLE
  8
PIN_SOLDERMASK_BOTTOM
 10
53.018766
 20
-17.654956
 40
0.175006
  0
CIRCLE
  8
PIN_SOLDERMASK_BOTTOM
 10
52.383766
 20
-17.654956
 40
0.175006
  0
CIRCLE
  8
PIN_SOLDERMASK_BOTTOM
 10
51.748766
 20
-17.654956
 40
0.175006
  0
CIRCLE
  8
PIN_SOLDERMASK_BOTTOM
 10
51.113766
 20
-17.654956
 40
0.175006
  0
CIRCLE
  8
PIN_SOLDERMASK_BOTTOM
 10
50.478766
 20
-17.654956
 40
0.175006
  0
CIRCLE
  8
PIN_SOLDERMASK_BOTTOM
 10
49.843766
 20
-17.654956
 40
0.175006
  0
CIRCLE
  8
PIN_SOLDERMASK_BOTTOM
 10
49.208766
 20
-17.654956
 40
0.175006
  0
CIRCLE
  8
PIN_SOLDERMASK_BOTTOM
 10
48.573766
 20
-17.654956
 40
0.175006
  0
CIRCLE
  8
PIN_SOLDERMASK_BOTTOM
 10
47.938766
 20
-17.654956
 40
0.175006
  0
CIRCLE
  8
PIN_SOLDERMASK_BOTTOM
 10
47.303766
 20
-17.654956
 40
0.175006
  0
CIRCLE
  8
PIN_SOLDERMASK_BOTTOM
 10
46.668766
 20
-17.654956
 40
0.175006
  0
CIRCLE
  8
PIN_SOLDERMASK_BOTTOM
 10
46.033766
 20
-17.654956
 40
0.175006
  0
CIRCLE
  8
PIN_SOLDERMASK_BOTTOM
 10
45.398766
 20
-17.654956
 40
0.175006
  0
CIRCLE
  8
PIN_SOLDERMASK_BOTTOM
 10
44.763766
 20
-17.654956
 40
0.175006
  0
CIRCLE
  8
PIN_SOLDERMASK_BOTTOM
 10
44.128766
 20
-17.654956
 40
0.175006
  0
CIRCLE
  8
PIN_SOLDERMASK_BOTTOM
 10
43.493766
 20
-17.654956
 40
0.175006
  0
CIRCLE
  8
PIN_SOLDERMASK_BOTTOM
 10
42.858766
 20
-17.654956
 40
0.175006
  0
CIRCLE
  8
PIN_SOLDERMASK_BOTTOM
 10
42.223766
 20
-17.654956
 40
0.175006
  0
CIRCLE
  8
PIN_SOLDERMASK_BOTTOM
 10
41.588766
 20
-17.654956
 40
0.175006
  0
CIRCLE
  8
PIN_SOLDERMASK_BOTTOM
 10
40.953766
 20
-17.654956
 40
0.175006
  0
CIRCLE
  8
PIN_SOLDERMASK_BOTTOM
 10
40.318766
 20
-17.654956
 40
0.175006
  0
CIRCLE
  8
PIN_SOLDERMASK_BOTTOM
 10
39.683766
 20
-17.654956
 40
0.175006
  0
CIRCLE
  8
PIN_SOLDERMASK_BOTTOM
 10
39.048766
 20
-17.654956
 40
0.175006
  0
CIRCLE
  8
PIN_SOLDERMASK_BOTTOM
 10
38.413766
 20
-17.654956
 40
0.175006
  0
CIRCLE
  8
PIN_SOLDERMASK_BOTTOM
 10
37.778766
 20
-17.654956
 40
0.175006
  0
CIRCLE
  8
PIN_SOLDERMASK_BOTTOM
 10
58.733766
 20
-16.074974
 40
0.175006
  0
CIRCLE
  8
PIN_SOLDERMASK_BOTTOM
 10
58.098766
 20
-16.074974
 40
0.175006
  0
CIRCLE
  8
PIN_SOLDERMASK_BOTTOM
 10
57.463766
 20
-16.074974
 40
0.175006
  0
CIRCLE
  8
PIN_SOLDERMASK_BOTTOM
 10
56.828766
 20
-16.074974
 40
0.175006
  0
CIRCLE
  8
PIN_SOLDERMASK_BOTTOM
 10
56.193766
 20
-16.074974
 40
0.175006
  0
CIRCLE
  8
PIN_SOLDERMASK_BOTTOM
 10
55.558766
 20
-16.074974
 40
0.175006
  0
CIRCLE
  8
PIN_SOLDERMASK_BOTTOM
 10
54.923766
 20
-16.074974
 40
0.175006
  0
CIRCLE
  8
PIN_SOLDERMASK_BOTTOM
 10
54.288766
 20
-16.074974
 40
0.175006
  0
CIRCLE
  8
PIN_SOLDERMASK_BOTTOM
 10
53.653766
 20
-16.074974
 40
0.175006
  0
CIRCLE
  8
PIN_SOLDERMASK_BOTTOM
 10
53.018766
 20
-16.074974
 40
0.175006
  0
CIRCLE
  8
PIN_SOLDERMASK_BOTTOM
 10
52.383766
 20
-16.074974
 40
0.175006
  0
CIRCLE
  8
PIN_SOLDERMASK_BOTTOM
 10
51.748766
 20
-16.074974
 40
0.175006
  0
CIRCLE
  8
PIN_SOLDERMASK_BOTTOM
 10
51.113766
 20
-16.074974
 40
0.175006
  0
CIRCLE
  8
PIN_SOLDERMASK_BOTTOM
 10
50.478766
 20
-16.074974
 40
0.175006
  0
CIRCLE
  8
PIN_SOLDERMASK_BOTTOM
 10
49.843766
 20
-16.074974
 40
0.175006
  0
CIRCLE
  8
PIN_SOLDERMASK_BOTTOM
 10
49.208766
 20
-16.074974
 40
0.175006
  0
CIRCLE
  8
PIN_SOLDERMASK_BOTTOM
 10
48.573766
 20
-16.074974
 40
0.175006
  0
CIRCLE
  8
PIN_SOLDERMASK_BOTTOM
 10
47.938766
 20
-16.074974
 40
0.175006
  0
CIRCLE
  8
PIN_SOLDERMASK_BOTTOM
 10
47.303766
 20
-16.074974
 40
0.175006
  0
CIRCLE
  8
PIN_SOLDERMASK_BOTTOM
 10
46.668766
 20
-16.074974
 40
0.175006
  0
CIRCLE
  8
PIN_SOLDERMASK_BOTTOM
 10
46.033766
 20
-16.074974
 40
0.175006
  0
CIRCLE
  8
PIN_SOLDERMASK_BOTTOM
 10
45.398766
 20
-16.074974
 40
0.175006
  0
CIRCLE
  8
PIN_SOLDERMASK_BOTTOM
 10
44.763766
 20
-16.074974
 40
0.175006
  0
CIRCLE
  8
PIN_SOLDERMASK_BOTTOM
 10
44.128766
 20
-16.074974
 40
0.175006
  0
CIRCLE
  8
PIN_SOLDERMASK_BOTTOM
 10
43.493766
 20
-16.074974
 40
0.175006
  0
CIRCLE
  8
PIN_SOLDERMASK_BOTTOM
 10
42.858766
 20
-16.074974
 40
0.175006
  0
CIRCLE
  8
PIN_SOLDERMASK_BOTTOM
 10
42.223766
 20
-16.074974
 40
0.175006
  0
CIRCLE
  8
PIN_SOLDERMASK_BOTTOM
 10
41.588766
 20
-16.074974
 40
0.175006
  0
CIRCLE
  8
PIN_SOLDERMASK_BOTTOM
 10
40.953766
 20
-16.074974
 40
0.175006
  0
CIRCLE
  8
PIN_SOLDERMASK_BOTTOM
 10
40.318766
 20
-16.074974
 40
0.175006
  0
CIRCLE
  8
PIN_SOLDERMASK_BOTTOM
 10
39.683766
 20
-16.074974
 40
0.175006
  0
CIRCLE
  8
PIN_SOLDERMASK_BOTTOM
 10
39.048766
 20
-16.074974
 40
0.175006
  0
CIRCLE
  8
PIN_SOLDERMASK_BOTTOM
 10
38.413766
 20
-16.074974
 40
0.175006
  0
CIRCLE
  8
PIN_SOLDERMASK_BOTTOM
 10
37.778766
 20
-16.074974
 40
0.175006
  0
CIRCLE
  8
PIN_SOLDERMASK_BOTTOM
 10
58.733766
 20
-15.114956
 40
0.175006
  0
CIRCLE
  8
PIN_SOLDERMASK_BOTTOM
 10
58.098766
 20
-15.114956
 40
0.175006
  0
CIRCLE
  8
PIN_SOLDERMASK_BOTTOM
 10
57.463766
 20
-15.114956
 40
0.175006
  0
CIRCLE
  8
PIN_SOLDERMASK_BOTTOM
 10
56.828766
 20
-15.114956
 40
0.175006
  0
CIRCLE
  8
PIN_SOLDERMASK_BOTTOM
 10
56.193766
 20
-15.114956
 40
0.175006
  0
CIRCLE
  8
PIN_SOLDERMASK_BOTTOM
 10
55.558766
 20
-15.114956
 40
0.175006
  0
CIRCLE
  8
PIN_SOLDERMASK_BOTTOM
 10
54.923766
 20
-15.114956
 40
0.175006
  0
CIRCLE
  8
PIN_SOLDERMASK_BOTTOM
 10
54.288766
 20
-15.114956
 40
0.175006
  0
CIRCLE
  8
PIN_SOLDERMASK_BOTTOM
 10
53.653766
 20
-15.114956
 40
0.175006
  0
CIRCLE
  8
PIN_SOLDERMASK_BOTTOM
 10
53.018766
 20
-15.114956
 40
0.175006
  0
CIRCLE
  8
PIN_SOLDERMASK_BOTTOM
 10
52.383766
 20
-15.114956
 40
0.175006
  0
CIRCLE
  8
PIN_SOLDERMASK_BOTTOM
 10
51.748766
 20
-15.114956
 40
0.175006
  0
CIRCLE
  8
PIN_SOLDERMASK_BOTTOM
 10
51.113766
 20
-15.114956
 40
0.175006
  0
CIRCLE
  8
PIN_SOLDERMASK_BOTTOM
 10
50.478766
 20
-15.114956
 40
0.175006
  0
CIRCLE
  8
PIN_SOLDERMASK_BOTTOM
 10
49.843766
 20
-15.114956
 40
0.175006
  0
CIRCLE
  8
PIN_SOLDERMASK_BOTTOM
 10
49.208766
 20
-15.114956
 40
0.175006
  0
CIRCLE
  8
PIN_SOLDERMASK_BOTTOM
 10
48.573766
 20
-15.114956
 40
0.175006
  0
CIRCLE
  8
PIN_SOLDERMASK_BOTTOM
 10
47.938766
 20
-15.114956
 40
0.175006
  0
CIRCLE
  8
PIN_SOLDERMASK_BOTTOM
 10
47.303766
 20
-15.114956
 40
0.175006
  0
CIRCLE
  8
PIN_SOLDERMASK_BOTTOM
 10
46.668766
 20
-15.114956
 40
0.175006
  0
CIRCLE
  8
PIN_SOLDERMASK_BOTTOM
 10
46.033766
 20
-15.114956
 40
0.175006
  0
CIRCLE
  8
PIN_SOLDERMASK_BOTTOM
 10
45.398766
 20
-15.114956
 40
0.175006
  0
CIRCLE
  8
PIN_SOLDERMASK_BOTTOM
 10
44.763766
 20
-15.114956
 40
0.175006
  0
CIRCLE
  8
PIN_SOLDERMASK_BOTTOM
 10
44.128766
 20
-15.114956
 40
0.175006
  0
CIRCLE
  8
PIN_SOLDERMASK_BOTTOM
 10
43.493766
 20
-15.114956
 40
0.175006
  0
CIRCLE
  8
PIN_SOLDERMASK_BOTTOM
 10
42.858766
 20
-15.114956
 40
0.175006
  0
CIRCLE
  8
PIN_SOLDERMASK_BOTTOM
 10
42.223766
 20
-15.114956
 40
0.175006
  0
CIRCLE
  8
PIN_SOLDERMASK_BOTTOM
 10
41.588766
 20
-15.114956
 40
0.175006
  0
CIRCLE
  8
PIN_SOLDERMASK_BOTTOM
 10
40.953766
 20
-15.114956
 40
0.175006
  0
CIRCLE
  8
PIN_SOLDERMASK_BOTTOM
 10
40.318766
 20
-15.114956
 40
0.175006
  0
CIRCLE
  8
PIN_SOLDERMASK_BOTTOM
 10
39.683766
 20
-15.114956
 40
0.175006
  0
CIRCLE
  8
PIN_SOLDERMASK_BOTTOM
 10
39.048766
 20
-15.114956
 40
0.175006
  0
CIRCLE
  8
PIN_SOLDERMASK_BOTTOM
 10
38.413766
 20
-15.114956
 40
0.175006
  0
CIRCLE
  8
PIN_SOLDERMASK_BOTTOM
 10
37.778766
 20
-15.114956
 40
0.175006
  0
POLYLINE
  8
PG_ASSEMBLY_BOTTOM
 66
1
 70
1
 40
0.000000
 41
0.000000
 39
0.000000
  0
VERTEX
  8
PG_ASSEMBLY_BOTTOM
 10
61.411256
 20
-19.364960
 40
0.000000
 41
0.000000
 42
0.000000
  0
VERTEX
  8
PG_ASSEMBLY_BOTTOM
 10
61.411256
 20
-14.364970
 40
0.000000
 41
0.000000
 42
0.000000
  0
VERTEX
  8
PG_ASSEMBLY_BOTTOM
 10
18.591276
 20
-14.364970
 40
0.000000
 41
0.000000
 42
0.000000
  0
VERTEX
  8
PG_ASSEMBLY_BOTTOM
 10
18.591276
 20
-19.364960
 40
0.000000
 41
0.000000
 42
0.000000
  0
SEQEND
  0
TEXT
  8
PG_SILKSCREEN_BOTTOM
 10
18.320487
 20
-15.552953
 11
0.000000
 21
0.000000
 40
0.635000
 41
1.080000
 50
0.000000
  7
STANDARD
 71
2
 72
0
  1
D
 73
0
  0
TEXT
  8
PG_SILKSCREEN_BOTTOM
 10
18.320487
 20
-16.512946
 11
0.000000
 21
0.000000
 40
0.635000
 41
1.080000
 50
0.000000
  7
STANDARD
 71
2
 72
0
  1
C
 73
0
  0
TEXT
  8
PG_SILKSCREEN_BOTTOM
 10
18.320487
 20
-18.092953
 11
0.000000
 21
0.000000
 40
0.635000
 41
1.080000
 50
0.000000
  7
STANDARD
 71
2
 72
0
  1
B
 73
0
  0
TEXT
  8
PG_SILKSCREEN_BOTTOM
 10
20.843240
 20
-19.941540
 11
0.000000
 21
0.000000
 40
0.635000
 41
1.080000
 50
270.000000
  7
STANDARD
 71
2
 72
0
  1
1
 73
0
  0
TEXT
  8
PG_SILKSCREEN_BOTTOM
 10
18.320487
 20
-19.052946
 11
0.000000
 21
0.000000
 40
0.635000
 41
1.080000
 50
0.000000
  7
STANDARD
 71
2
 72
0
  1
A
 73
0
  0
CIRCLE
  8
PIN_SOLDERMASK_BOTTOM
 10
1.257986
 20
38.724891
 40
0.175006
  0
CIRCLE
  8
PIN_SOLDERMASK_BOTTOM
 10
1.257986
 20
38.089891
 40
0.175006
  0
CIRCLE
  8
PIN_SOLDERMASK_BOTTOM
 10
1.257986
 20
37.454891
 40
0.175006
  0
CIRCLE
  8
PIN_SOLDERMASK_BOTTOM
 10
1.257986
 20
36.819891
 40
0.175006
  0
CIRCLE
  8
PIN_SOLDERMASK_BOTTOM
 10
1.257986
 20
36.184891
 40
0.175006
  0
CIRCLE
  8
PIN_SOLDERMASK_BOTTOM
 10
1.257986
 20
35.549891
 40
0.175006
  0
CIRCLE
  8
PIN_SOLDERMASK_BOTTOM
 10
1.257986
 20
34.914891
 40
0.175006
  0
CIRCLE
  8
PIN_SOLDERMASK_BOTTOM
 10
1.257986
 20
34.279891
 40
0.175006
  0
CIRCLE
  8
PIN_SOLDERMASK_BOTTOM
 10
1.257986
 20
33.644891
 40
0.175006
  0
CIRCLE
  8
PIN_SOLDERMASK_BOTTOM
 10
1.257986
 20
33.009891
 40
0.175006
  0
CIRCLE
  8
PIN_SOLDERMASK_BOTTOM
 10
1.257986
 20
32.374891
 40
0.175006
  0
CIRCLE
  8
PIN_SOLDERMASK_BOTTOM
 10
1.257986
 20
31.739891
 40
0.175006
  0
CIRCLE
  8
PIN_SOLDERMASK_BOTTOM
 10
1.257986
 20
31.104891
 40
0.175006
  0
CIRCLE
  8
PIN_SOLDERMASK_BOTTOM
 10
1.257986
 20
30.469891
 40
0.175006
  0
CIRCLE
  8
PIN_SOLDERMASK_BOTTOM
 10
1.257986
 20
29.834891
 40
0.175006
  0
CIRCLE
  8
PIN_SOLDERMASK_BOTTOM
 10
1.257986
 20
29.199891
 40
0.175006
  0
CIRCLE
  8
PIN_SOLDERMASK_BOTTOM
 10
1.257986
 20
28.564891
 40
0.175006
  0
CIRCLE
  8
PIN_SOLDERMASK_BOTTOM
 10
1.257986
 20
27.929891
 40
0.175006
  0
CIRCLE
  8
PIN_SOLDERMASK_BOTTOM
 10
1.257986
 20
27.294891
 40
0.175006
  0
CIRCLE
  8
PIN_SOLDERMASK_BOTTOM
 10
1.257986
 20
26.659891
 40
0.175006
  0
CIRCLE
  8
PIN_SOLDERMASK_BOTTOM
 10
1.257986
 20
26.024891
 40
0.175006
  0
CIRCLE
  8
PIN_SOLDERMASK_BOTTOM
 10
1.257986
 20
25.389891
 40
0.175006
  0
CIRCLE
  8
PIN_SOLDERMASK_BOTTOM
 10
1.257986
 20
24.754891
 40
0.175006
  0
CIRCLE
  8
PIN_SOLDERMASK_BOTTOM
 10
1.257986
 20
24.119891
 40
0.175006
  0
CIRCLE
  8
PIN_SOLDERMASK_BOTTOM
 10
1.257986
 20
23.484891
 40
0.175006
  0
CIRCLE
  8
PIN_SOLDERMASK_BOTTOM
 10
1.257986
 20
22.849891
 40
0.175006
  0
CIRCLE
  8
PIN_SOLDERMASK_BOTTOM
 10
2.218004
 20
38.724891
 40
0.175006
  0
CIRCLE
  8
PIN_SOLDERMASK_BOTTOM
 10
2.218004
 20
38.089891
 40
0.175006
  0
CIRCLE
  8
PIN_SOLDERMASK_BOTTOM
 10
2.218004
 20
37.454891
 40
0.175006
  0
CIRCLE
  8
PIN_SOLDERMASK_BOTTOM
 10
2.218004
 20
36.819891
 40
0.175006
  0
CIRCLE
  8
PIN_SOLDERMASK_BOTTOM
 10
2.218004
 20
36.184891
 40
0.175006
  0
CIRCLE
  8
PIN_SOLDERMASK_BOTTOM
 10
2.218004
 20
35.549891
 40
0.175006
  0
CIRCLE
  8
PIN_SOLDERMASK_BOTTOM
 10
2.218004
 20
34.914891
 40
0.175006
  0
CIRCLE
  8
PIN_SOLDERMASK_BOTTOM
 10
2.218004
 20
34.279891
 40
0.175006
  0
CIRCLE
  8
PIN_SOLDERMASK_BOTTOM
 10
2.218004
 20
33.644891
 40
0.175006
  0
CIRCLE
  8
PIN_SOLDERMASK_BOTTOM
 10
2.218004
 20
33.009891
 40
0.175006
  0
CIRCLE
  8
PIN_SOLDERMASK_BOTTOM
 10
2.218004
 20
32.374891
 40
0.175006
  0
CIRCLE
  8
PIN_SOLDERMASK_BOTTOM
 10
2.218004
 20
31.739891
 40
0.175006
  0
CIRCLE
  8
PIN_SOLDERMASK_BOTTOM
 10
2.218004
 20
31.104891
 40
0.175006
  0
CIRCLE
  8
PIN_SOLDERMASK_BOTTOM
 10
2.218004
 20
30.469891
 40
0.175006
  0
CIRCLE
  8
PIN_SOLDERMASK_BOTTOM
 10
2.218004
 20
29.834891
 40
0.175006
  0
CIRCLE
  8
PIN_SOLDERMASK_BOTTOM
 10
2.218004
 20
29.199891
 40
0.175006
  0
CIRCLE
  8
PIN_SOLDERMASK_BOTTOM
 10
2.218004
 20
28.564891
 40
0.175006
  0
CIRCLE
  8
PIN_SOLDERMASK_BOTTOM
 10
2.218004
 20
27.929891
 40
0.175006
  0
CIRCLE
  8
PIN_SOLDERMASK_BOTTOM
 10
2.218004
 20
27.294891
 40
0.175006
  0
CIRCLE
  8
PIN_SOLDERMASK_BOTTOM
 10
2.218004
 20
26.659891
 40
0.175006
  0
CIRCLE
  8
PIN_SOLDERMASK_BOTTOM
 10
2.218004
 20
26.024891
 40
0.175006
  0
CIRCLE
  8
PIN_SOLDERMASK_BOTTOM
 10
2.218004
 20
25.389891
 40
0.175006
  0
CIRCLE
  8
PIN_SOLDERMASK_BOTTOM
 10
2.218004
 20
24.754891
 40
0.175006
  0
CIRCLE
  8
PIN_SOLDERMASK_BOTTOM
 10
2.218004
 20
24.119891
 40
0.175006
  0
CIRCLE
  8
PIN_SOLDERMASK_BOTTOM
 10
2.218004
 20
23.484891
 40
0.175006
  0
CIRCLE
  8
PIN_SOLDERMASK_BOTTOM
 10
2.218004
 20
22.849891
 40
0.175006
  0
CIRCLE
  8
PIN_SOLDERMASK_BOTTOM
 10
3.797986
 20
38.724891
 40
0.175006
  0
CIRCLE
  8
PIN_SOLDERMASK_BOTTOM
 10
3.797986
 20
38.089891
 40
0.175006
  0
CIRCLE
  8
PIN_SOLDERMASK_BOTTOM
 10
3.797986
 20
37.454891
 40
0.175006
  0
CIRCLE
  8
PIN_SOLDERMASK_BOTTOM
 10
3.797986
 20
36.819891
 40
0.175006
  0
CIRCLE
  8
PIN_SOLDERMASK_BOTTOM
 10
3.797986
 20
36.184891
 40
0.175006
  0
CIRCLE
  8
PIN_SOLDERMASK_BOTTOM
 10
3.797986
 20
35.549891
 40
0.175006
  0
CIRCLE
  8
PIN_SOLDERMASK_BOTTOM
 10
3.797986
 20
34.914891
 40
0.175006
  0
CIRCLE
  8
PIN_SOLDERMASK_BOTTOM
 10
3.797986
 20
34.279891
 40
0.175006
  0
CIRCLE
  8
PIN_SOLDERMASK_BOTTOM
 10
3.797986
 20
33.644891
 40
0.175006
  0
CIRCLE
  8
PIN_SOLDERMASK_BOTTOM
 10
3.797986
 20
33.009891
 40
0.175006
  0
CIRCLE
  8
PIN_SOLDERMASK_BOTTOM
 10
3.797986
 20
32.374891
 40
0.175006
  0
CIRCLE
  8
PIN_SOLDERMASK_BOTTOM
 10
3.797986
 20
31.739891
 40
0.175006
  0
CIRCLE
  8
PIN_SOLDERMASK_BOTTOM
 10
3.797986
 20
31.104891
 40
0.175006
  0
CIRCLE
  8
PIN_SOLDERMASK_BOTTOM
 10
3.797986
 20
30.469891
 40
0.175006
  0
CIRCLE
  8
PIN_SOLDERMASK_BOTTOM
 10
3.797986
 20
29.834891
 40
0.175006
  0
CIRCLE
  8
PIN_SOLDERMASK_BOTTOM
 10
3.797986
 20
29.199891
 40
0.175006
  0
CIRCLE
  8
PIN_SOLDERMASK_BOTTOM
 10
3.797986
 20
28.564891
 40
0.175006
  0
CIRCLE
  8
PIN_SOLDERMASK_BOTTOM
 10
3.797986
 20
27.929891
 40
0.175006
  0
CIRCLE
  8
PIN_SOLDERMASK_BOTTOM
 10
3.797986
 20
27.294891
 40
0.175006
  0
CIRCLE
  8
PIN_SOLDERMASK_BOTTOM
 10
3.797986
 20
26.659891
 40
0.175006
  0
CIRCLE
  8
PIN_SOLDERMASK_BOTTOM
 10
3.797986
 20
26.024891
 40
0.175006
  0
CIRCLE
  8
PIN_SOLDERMASK_BOTTOM
 10
3.797986
 20
25.389891
 40
0.175006
  0
CIRCLE
  8
PIN_SOLDERMASK_BOTTOM
 10
3.797986
 20
24.754891
 40
0.175006
  0
CIRCLE
  8
PIN_SOLDERMASK_BOTTOM
 10
3.797986
 20
24.119891
 40
0.175006
  0
CIRCLE
  8
PIN_SOLDERMASK_BOTTOM
 10
3.797986
 20
23.484891
 40
0.175006
  0
CIRCLE
  8
PIN_SOLDERMASK_BOTTOM
 10
3.797986
 20
22.849891
 40
0.175006
  0
CIRCLE
  8
PIN_SOLDERMASK_BOTTOM
 10
4.758004
 20
38.724891
 40
0.175006
  0
CIRCLE
  8
PIN_SOLDERMASK_BOTTOM
 10
4.758004
 20
38.089891
 40
0.175006
  0
CIRCLE
  8
PIN_SOLDERMASK_BOTTOM
 10
4.758004
 20
37.454891
 40
0.175006
  0
CIRCLE
  8
PIN_SOLDERMASK_BOTTOM
 10
4.758004
 20
36.819891
 40
0.175006
  0
CIRCLE
  8
PIN_SOLDERMASK_BOTTOM
 10
4.758004
 20
36.184891
 40
0.175006
  0
CIRCLE
  8
PIN_SOLDERMASK_BOTTOM
 10
4.758004
 20
35.549891
 40
0.175006
  0
CIRCLE
  8
PIN_SOLDERMASK_BOTTOM
 10
4.758004
 20
34.914891
 40
0.175006
  0
CIRCLE
  8
PIN_SOLDERMASK_BOTTOM
 10
4.758004
 20
34.279891
 40
0.175006
  0
CIRCLE
  8
PIN_SOLDERMASK_BOTTOM
 10
4.758004
 20
33.644891
 40
0.175006
  0
CIRCLE
  8
PIN_SOLDERMASK_BOTTOM
 10
4.758004
 20
33.009891
 40
0.175006
  0
CIRCLE
  8
PIN_SOLDERMASK_BOTTOM
 10
4.758004
 20
32.374891
 40
0.175006
  0
CIRCLE
  8
PIN_SOLDERMASK_BOTTOM
 10
4.758004
 20
31.739891
 40
0.175006
  0
CIRCLE
  8
PIN_SOLDERMASK_BOTTOM
 10
4.758004
 20
31.104891
 40
0.175006
  0
CIRCLE
  8
PIN_SOLDERMASK_BOTTOM
 10
4.758004
 20
30.469891
 40
0.175006
  0
CIRCLE
  8
PIN_SOLDERMASK_BOTTOM
 10
4.758004
 20
29.834891
 40
0.175006
  0
CIRCLE
  8
PIN_SOLDERMASK_BOTTOM
 10
4.758004
 20
29.199891
 40
0.175006
  0
CIRCLE
  8
PIN_SOLDERMASK_BOTTOM
 10
4.758004
 20
28.564891
 40
0.175006
  0
CIRCLE
  8
PIN_SOLDERMASK_BOTTOM
 10
4.758004
 20
27.929891
 40
0.175006
  0
CIRCLE
  8
PIN_SOLDERMASK_BOTTOM
 10
4.758004
 20
27.294891
 40
0.175006
  0
CIRCLE
  8
PIN_SOLDERMASK_BOTTOM
 10
4.758004
 20
26.659891
 40
0.175006
  0
CIRCLE
  8
PIN_SOLDERMASK_BOTTOM
 10
4.758004
 20
26.024891
 40
0.175006
  0
CIRCLE
  8
PIN_SOLDERMASK_BOTTOM
 10
4.758004
 20
25.389891
 40
0.175006
  0
CIRCLE
  8
PIN_SOLDERMASK_BOTTOM
 10
4.758004
 20
24.754891
 40
0.175006
  0
CIRCLE
  8
PIN_SOLDERMASK_BOTTOM
 10
4.758004
 20
24.119891
 40
0.175006
  0
CIRCLE
  8
PIN_SOLDERMASK_BOTTOM
 10
4.758004
 20
23.484891
 40
0.175006
  0
CIRCLE
  8
PIN_SOLDERMASK_BOTTOM
 10
4.758004
 20
22.849891
 40
0.175006
  0
CIRCLE
  8
PIN_SOLDERMASK_BOTTOM
 10
1.257986
 20
22.214891
 40
0.175006
  0
CIRCLE
  8
PIN_SOLDERMASK_BOTTOM
 10
1.257986
 20
21.579891
 40
0.175006
  0
CIRCLE
  8
PIN_SOLDERMASK_BOTTOM
 10
1.257986
 20
20.944891
 40
0.175006
  0
CIRCLE
  8
PIN_SOLDERMASK_BOTTOM
 10
1.257986
 20
20.309891
 40
0.175006
  0
CIRCLE
  8
PIN_SOLDERMASK_BOTTOM
 10
1.257986
 20
19.674891
 40
0.175006
  0
CIRCLE
  8
PIN_SOLDERMASK_BOTTOM
 10
1.257986
 20
19.039891
 40
0.175006
  0
CIRCLE
  8
PIN_SOLDERMASK_BOTTOM
 10
1.257986
 20
18.404891
 40
0.175006
  0
CIRCLE
  8
PIN_SOLDERMASK_BOTTOM
 10
1.257986
 20
17.769891
 40
0.175006
  0
CIRCLE
  8
PIN_SOLDERMASK_BOTTOM
 10
1.257986
 20
17.134891
 40
0.175006
  0
CIRCLE
  8
PIN_SOLDERMASK_BOTTOM
 10
1.257986
 20
16.499891
 40
0.175006
  0
CIRCLE
  8
PIN_SOLDERMASK_BOTTOM
 10
1.257986
 20
15.864891
 40
0.175006
  0
CIRCLE
  8
PIN_SOLDERMASK_BOTTOM
 10
1.257986
 20
15.229891
 40
0.175006
  0
CIRCLE
  8
PIN_SOLDERMASK_BOTTOM
 10
1.257986
 20
14.594891
 40
0.175006
  0
CIRCLE
  8
PIN_SOLDERMASK_BOTTOM
 10
1.257986
 20
13.959891
 40
0.175006
  0
CIRCLE
  8
PIN_SOLDERMASK_BOTTOM
 10
1.257986
 20
13.324891
 40
0.175006
  0
CIRCLE
  8
PIN_SOLDERMASK_BOTTOM
 10
1.257986
 20
12.689891
 40
0.175006
  0
CIRCLE
  8
PIN_SOLDERMASK_BOTTOM
 10
1.257986
 20
12.054891
 40
0.175006
  0
CIRCLE
  8
PIN_SOLDERMASK_BOTTOM
 10
1.257986
 20
11.419891
 40
0.175006
  0
CIRCLE
  8
PIN_SOLDERMASK_BOTTOM
 10
1.257986
 20
10.784891
 40
0.175006
  0
CIRCLE
  8
PIN_SOLDERMASK_BOTTOM
 10
1.257986
 20
10.149891
 40
0.175006
  0
CIRCLE
  8
PIN_SOLDERMASK_BOTTOM
 10
1.257986
 20
9.514891
 40
0.175006
  0
CIRCLE
  8
PIN_SOLDERMASK_BOTTOM
 10
1.257986
 20
8.879891
 40
0.175006
  0
CIRCLE
  8
PIN_SOLDERMASK_BOTTOM
 10
1.257986
 20
8.244891
 40
0.175006
  0
CIRCLE
  8
PIN_SOLDERMASK_BOTTOM
 10
1.257986
 20
7.609891
 40
0.175006
  0
CIRCLE
  8
PIN_SOLDERMASK_BOTTOM
 10
1.257986
 20
6.974891
 40
0.175006
  0
CIRCLE
  8
PIN_SOLDERMASK_BOTTOM
 10
1.257986
 20
6.339891
 40
0.175006
  0
CIRCLE
  8
PIN_SOLDERMASK_BOTTOM
 10
1.257986
 20
5.704891
 40
0.175006
  0
CIRCLE
  8
PIN_SOLDERMASK_BOTTOM
 10
1.257986
 20
5.069891
 40
0.175006
  0
CIRCLE
  8
PIN_SOLDERMASK_BOTTOM
 10
1.257986
 20
4.434891
 40
0.175006
  0
CIRCLE
  8
PIN_SOLDERMASK_BOTTOM
 10
1.257986
 20
3.799891
 40
0.175006
  0
CIRCLE
  8
PIN_SOLDERMASK_BOTTOM
 10
1.257986
 20
3.164891
 40
0.175006
  0
CIRCLE
  8
PIN_SOLDERMASK_BOTTOM
 10
1.257986
 20
2.529891
 40
0.175006
  0
CIRCLE
  8
PIN_SOLDERMASK_BOTTOM
 10
1.257986
 20
1.894891
 40
0.175006
  0
CIRCLE
  8
PIN_SOLDERMASK_BOTTOM
 10
1.257986
 20
1.259891
 40
0.175006
  0
CIRCLE
  8
PIN_SOLDERMASK_BOTTOM
 10
2.218004
 20
1.259891
 40
0.175006
  0
CIRCLE
  8
PIN_SOLDERMASK_BOTTOM
 10
2.218004
 20
1.894891
 40
0.175006
  0
CIRCLE
  8
PIN_SOLDERMASK_BOTTOM
 10
2.218004
 20
2.529891
 40
0.175006
  0
CIRCLE
  8
PIN_SOLDERMASK_BOTTOM
 10
2.218004
 20
3.164891
 40
0.175006
  0
CIRCLE
  8
PIN_SOLDERMASK_BOTTOM
 10
2.218004
 20
3.799891
 40
0.175006
  0
CIRCLE
  8
PIN_SOLDERMASK_BOTTOM
 10
2.218004
 20
4.434891
 40
0.175006
  0
CIRCLE
  8
PIN_SOLDERMASK_BOTTOM
 10
2.218004
 20
5.069891
 40
0.175006
  0
CIRCLE
  8
PIN_SOLDERMASK_BOTTOM
 10
2.218004
 20
5.704891
 40
0.175006
  0
CIRCLE
  8
PIN_SOLDERMASK_BOTTOM
 10
2.218004
 20
6.339891
 40
0.175006
  0
CIRCLE
  8
PIN_SOLDERMASK_BOTTOM
 10
2.218004
 20
6.974891
 40
0.175006
  0
CIRCLE
  8
PIN_SOLDERMASK_BOTTOM
 10
2.218004
 20
7.609891
 40
0.175006
  0
CIRCLE
  8
PIN_SOLDERMASK_BOTTOM
 10
2.218004
 20
8.244891
 40
0.175006
  0
CIRCLE
  8
PIN_SOLDERMASK_BOTTOM
 10
2.218004
 20
8.879891
 40
0.175006
  0
CIRCLE
  8
PIN_SOLDERMASK_BOTTOM
 10
2.218004
 20
9.514891
 40
0.175006
  0
CIRCLE
  8
PIN_SOLDERMASK_BOTTOM
 10
2.218004
 20
10.149891
 40
0.175006
  0
CIRCLE
  8
PIN_SOLDERMASK_BOTTOM
 10
2.218004
 20
10.784891
 40
0.175006
  0
CIRCLE
  8
PIN_SOLDERMASK_BOTTOM
 10
2.218004
 20
11.419891
 40
0.175006
  0
CIRCLE
  8
PIN_SOLDERMASK_BOTTOM
 10
2.218004
 20
12.054891
 40
0.175006
  0
CIRCLE
  8
PIN_SOLDERMASK_BOTTOM
 10
2.218004
 20
12.689891
 40
0.175006
  0
CIRCLE
  8
PIN_SOLDERMASK_BOTTOM
 10
2.218004
 20
13.324891
 40
0.175006
  0
CIRCLE
  8
PIN_SOLDERMASK_BOTTOM
 10
2.218004
 20
13.959891
 40
0.175006
  0
CIRCLE
  8
PIN_SOLDERMASK_BOTTOM
 10
2.218004
 20
14.594891
 40
0.175006
  0
CIRCLE
  8
PIN_SOLDERMASK_BOTTOM
 10
2.218004
 20
15.229891
 40
0.175006
  0
CIRCLE
  8
PIN_SOLDERMASK_BOTTOM
 10
2.218004
 20
15.864891
 40
0.175006
  0
CIRCLE
  8
PIN_SOLDERMASK_BOTTOM
 10
2.218004
 20
16.499891
 40
0.175006
  0
CIRCLE
  8
PIN_SOLDERMASK_BOTTOM
 10
2.218004
 20
17.134891
 40
0.175006
  0
CIRCLE
  8
PIN_SOLDERMASK_BOTTOM
 10
2.218004
 20
17.769891
 40
0.175006
  0
CIRCLE
  8
PIN_SOLDERMASK_BOTTOM
 10
2.218004
 20
18.404891
 40
0.175006
  0
CIRCLE
  8
PIN_SOLDERMASK_BOTTOM
 10
2.218004
 20
19.039891
 40
0.175006
  0
CIRCLE
  8
PIN_SOLDERMASK_BOTTOM
 10
2.218004
 20
19.674891
 40
0.175006
  0
CIRCLE
  8
PIN_SOLDERMASK_BOTTOM
 10
2.218004
 20
20.309891
 40
0.175006
  0
CIRCLE
  8
PIN_SOLDERMASK_BOTTOM
 10
2.218004
 20
20.944891
 40
0.175006
  0
CIRCLE
  8
PIN_SOLDERMASK_BOTTOM
 10
2.218004
 20
21.579891
 40
0.175006
  0
CIRCLE
  8
PIN_SOLDERMASK_BOTTOM
 10
2.218004
 20
22.214891
 40
0.175006
  0
CIRCLE
  8
PIN_SOLDERMASK_BOTTOM
 10
3.797986
 20
1.259891
 40
0.175006
  0
CIRCLE
  8
PIN_SOLDERMASK_BOTTOM
 10
3.797986
 20
1.894891
 40
0.175006
  0
CIRCLE
  8
PIN_SOLDERMASK_BOTTOM
 10
3.797986
 20
2.529891
 40
0.175006
  0
CIRCLE
  8
PIN_SOLDERMASK_BOTTOM
 10
3.797986
 20
3.164891
 40
0.175006
  0
CIRCLE
  8
PIN_SOLDERMASK_BOTTOM
 10
3.797986
 20
3.799891
 40
0.175006
  0
CIRCLE
  8
PIN_SOLDERMASK_BOTTOM
 10
3.797986
 20
4.434891
 40
0.175006
  0
CIRCLE
  8
PIN_SOLDERMASK_BOTTOM
 10
3.797986
 20
5.069891
 40
0.175006
  0
CIRCLE
  8
PIN_SOLDERMASK_BOTTOM
 10
3.797986
 20
5.704891
 40
0.175006
  0
CIRCLE
  8
PIN_SOLDERMASK_BOTTOM
 10
3.797986
 20
6.339891
 40
0.175006
  0
CIRCLE
  8
PIN_SOLDERMASK_BOTTOM
 10
3.797986
 20
6.974891
 40
0.175006
  0
CIRCLE
  8
PIN_SOLDERMASK_BOTTOM
 10
3.797986
 20
7.609891
 40
0.175006
  0
CIRCLE
  8
PIN_SOLDERMASK_BOTTOM
 10
3.797986
 20
8.244891
 40
0.175006
  0
CIRCLE
  8
PIN_SOLDERMASK_BOTTOM
 10
3.797986
 20
8.879891
 40
0.175006
  0
CIRCLE
  8
PIN_SOLDERMASK_BOTTOM
 10
3.797986
 20
9.514891
 40
0.175006
  0
CIRCLE
  8
PIN_SOLDERMASK_BOTTOM
 10
3.797986
 20
10.149891
 40
0.175006
  0
CIRCLE
  8
PIN_SOLDERMASK_BOTTOM
 10
3.797986
 20
10.784891
 40
0.175006
  0
CIRCLE
  8
PIN_SOLDERMASK_BOTTOM
 10
3.797986
 20
11.419891
 40
0.175006
  0
CIRCLE
  8
PIN_SOLDERMASK_BOTTOM
 10
3.797986
 20
12.054891
 40
0.175006
  0
CIRCLE
  8
PIN_SOLDERMASK_BOTTOM
 10
3.797986
 20
12.689891
 40
0.175006
  0
CIRCLE
  8
PIN_SOLDERMASK_BOTTOM
 10
3.797986
 20
13.324891
 40
0.175006
  0
CIRCLE
  8
PIN_SOLDERMASK_BOTTOM
 10
3.797986
 20
13.959891
 40
0.175006
  0
CIRCLE
  8
PIN_SOLDERMASK_BOTTOM
 10
3.797986
 20
14.594891
 40
0.175006
  0
CIRCLE
  8
PIN_SOLDERMASK_BOTTOM
 10
3.797986
 20
15.229891
 40
0.175006
  0
CIRCLE
  8
PIN_SOLDERMASK_BOTTOM
 10
3.797986
 20
15.864891
 40
0.175006
  0
CIRCLE
  8
PIN_SOLDERMASK_BOTTOM
 10
3.797986
 20
16.499891
 40
0.175006
  0
CIRCLE
  8
PIN_SOLDERMASK_BOTTOM
 10
3.797986
 20
17.134891
 40
0.175006
  0
CIRCLE
  8
PIN_SOLDERMASK_BOTTOM
 10
3.797986
 20
17.769891
 40
0.175006
  0
CIRCLE
  8
PIN_SOLDERMASK_BOTTOM
 10
3.797986
 20
18.404891
 40
0.175006
  0
CIRCLE
  8
PIN_SOLDERMASK_BOTTOM
 10
3.797986
 20
19.039891
 40
0.175006
  0
CIRCLE
  8
PIN_SOLDERMASK_BOTTOM
 10
3.797986
 20
19.674891
 40
0.175006
  0
CIRCLE
  8
PIN_SOLDERMASK_BOTTOM
 10
3.797986
 20
20.309891
 40
0.175006
  0
CIRCLE
  8
PIN_SOLDERMASK_BOTTOM
 10
3.797986
 20
20.944891
 40
0.175006
  0
CIRCLE
  8
PIN_SOLDERMASK_BOTTOM
 10
3.797986
 20
21.579891
 40
0.175006
  0
CIRCLE
  8
PIN_SOLDERMASK_BOTTOM
 10
3.797986
 20
22.214891
 40
0.175006
  0
CIRCLE
  8
PIN_SOLDERMASK_BOTTOM
 10
4.758004
 20
1.259891
 40
0.175006
  0
CIRCLE
  8
PIN_SOLDERMASK_BOTTOM
 10
4.758004
 20
1.894891
 40
0.175006
  0
CIRCLE
  8
PIN_SOLDERMASK_BOTTOM
 10
4.758004
 20
2.529891
 40
0.175006
  0
CIRCLE
  8
PIN_SOLDERMASK_BOTTOM
 10
4.758004
 20
3.164891
 40
0.175006
  0
CIRCLE
  8
PIN_SOLDERMASK_BOTTOM
 10
4.758004
 20
3.799891
 40
0.175006
  0
CIRCLE
  8
PIN_SOLDERMASK_BOTTOM
 10
4.758004
 20
4.434891
 40
0.175006
  0
CIRCLE
  8
PIN_SOLDERMASK_BOTTOM
 10
4.758004
 20
5.069891
 40
0.175006
  0
CIRCLE
  8
PIN_SOLDERMASK_BOTTOM
 10
4.758004
 20
5.704891
 40
0.175006
  0
CIRCLE
  8
PIN_SOLDERMASK_BOTTOM
 10
4.758004
 20
6.339891
 40
0.175006
  0
CIRCLE
  8
PIN_SOLDERMASK_BOTTOM
 10
4.758004
 20
6.974891
 40
0.175006
  0
CIRCLE
  8
PIN_SOLDERMASK_BOTTOM
 10
4.758004
 20
7.609891
 40
0.175006
  0
CIRCLE
  8
PIN_SOLDERMASK_BOTTOM
 10
4.758004
 20
8.244891
 40
0.175006
  0
CIRCLE
  8
PIN_SOLDERMASK_BOTTOM
 10
4.758004
 20
8.879891
 40
0.175006
  0
CIRCLE
  8
PIN_SOLDERMASK_BOTTOM
 10
4.758004
 20
9.514891
 40
0.175006
  0
CIRCLE
  8
PIN_SOLDERMASK_BOTTOM
 10
4.758004
 20
10.149891
 40
0.175006
  0
CIRCLE
  8
PIN_SOLDERMASK_BOTTOM
 10
4.758004
 20
10.784891
 40
0.175006
  0
CIRCLE
  8
PIN_SOLDERMASK_BOTTOM
 10
4.758004
 20
11.419891
 40
0.175006
  0
CIRCLE
  8
PIN_SOLDERMASK_BOTTOM
 10
4.758004
 20
12.054891
 40
0.175006
  0
CIRCLE
  8
PIN_SOLDERMASK_BOTTOM
 10
4.758004
 20
12.689891
 40
0.175006
  0
CIRCLE
  8
PIN_SOLDERMASK_BOTTOM
 10
4.758004
 20
13.324891
 40
0.175006
  0
CIRCLE
  8
PIN_SOLDERMASK_BOTTOM
 10
4.758004
 20
13.959891
 40
0.175006
  0
CIRCLE
  8
PIN_SOLDERMASK_BOTTOM
 10
4.758004
 20
14.594891
 40
0.175006
  0
CIRCLE
  8
PIN_SOLDERMASK_BOTTOM
 10
4.758004
 20
15.229891
 40
0.175006
  0
CIRCLE
  8
PIN_SOLDERMASK_BOTTOM
 10
4.758004
 20
15.864891
 40
0.175006
  0
CIRCLE
  8
PIN_SOLDERMASK_BOTTOM
 10
4.758004
 20
16.499891
 40
0.175006
  0
CIRCLE
  8
PIN_SOLDERMASK_BOTTOM
 10
4.758004
 20
17.134891
 40
0.175006
  0
CIRCLE
  8
PIN_SOLDERMASK_BOTTOM
 10
4.758004
 20
17.769891
 40
0.175006
  0
CIRCLE
  8
PIN_SOLDERMASK_BOTTOM
 10
4.758004
 20
18.404891
 40
0.175006
  0
CIRCLE
  8
PIN_SOLDERMASK_BOTTOM
 10
4.758004
 20
19.039891
 40
0.175006
  0
CIRCLE
  8
PIN_SOLDERMASK_BOTTOM
 10
4.758004
 20
19.674891
 40
0.175006
  0
CIRCLE
  8
PIN_SOLDERMASK_BOTTOM
 10
4.758004
 20
20.309891
 40
0.175006
  0
CIRCLE
  8
PIN_SOLDERMASK_BOTTOM
 10
4.758004
 20
20.944891
 40
0.175006
  0
CIRCLE
  8
PIN_SOLDERMASK_BOTTOM
 10
4.758004
 20
21.579891
 40
0.175006
  0
CIRCLE
  8
PIN_SOLDERMASK_BOTTOM
 10
4.758004
 20
22.214891
 40
0.175006
  0
POLYLINE
  8
PG_ASSEMBLY_BOTTOM
 66
1
 70
1
 40
0.000000
 41
0.000000
 39
0.000000
  0
VERTEX
  8
PG_ASSEMBLY_BOTTOM
 10
0.508000
 20
-1.417599
 40
0.000000
 41
0.000000
 42
0.000000
  0
VERTEX
  8
PG_ASSEMBLY_BOTTOM
 10
5.507990
 20
-1.417599
 40
0.000000
 41
0.000000
 42
0.000000
  0
VERTEX
  8
PG_ASSEMBLY_BOTTOM
 10
5.507990
 20
41.402381
 40
0.000000
 41
0.000000
 42
0.000000
  0
VERTEX
  8
PG_ASSEMBLY_BOTTOM
 10
0.508000
 20
41.402381
 40
0.000000
 41
0.000000
 42
0.000000
  0
SEQEND
  0
TEXT
  8
PG_SILKSCREEN_BOTTOM
 10
4.604487
 20
41.896690
 11
0.000000
 21
0.000000
 40
0.635000
 41
1.080000
 50
270.000000
  7
STANDARD
 71
2
 72
0
  1
D
 73
0
  0
TEXT
  8
PG_SILKSCREEN_BOTTOM
 10
3.644494
 20
41.896690
 11
0.000000
 21
0.000000
 40
0.635000
 41
1.080000
 50
270.000000
  7
STANDARD
 71
2
 72
0
  1
C
 73
0
  0
TEXT
  8
PG_SILKSCREEN_BOTTOM
 10
2.064487
 20
41.896690
 11
0.000000
 21
0.000000
 40
0.635000
 41
1.080000
 50
270.000000
  7
STANDARD
 71
2
 72
0
  1
B
 73
0
  0
TEXT
  8
PG_SILKSCREEN_BOTTOM
 10
0.497840
 20
39.019480
 11
0.000000
 21
0.000000
 40
0.635000
 41
1.080000
 50
0.000000
  7
STANDARD
 71
2
 72
0
  1
1
 73
0
  0
TEXT
  8
PG_SILKSCREEN_BOTTOM
 10
1.104494
 20
41.896690
 11
0.000000
 21
0.000000
 40
0.635000
 41
1.080000
 50
270.000000
  7
STANDARD
 71
2
 72
0
  1
A
 73
0
  0
CIRCLE
  8
PIN_SOLDERMASK_BOTTOM
 10
75.241988
 20
38.724891
 40
0.175006
  0
CIRCLE
  8
PIN_SOLDERMASK_BOTTOM
 10
75.241988
 20
38.089891
 40
0.175006
  0
CIRCLE
  8
PIN_SOLDERMASK_BOTTOM
 10
75.241988
 20
37.454891
 40
0.175006
  0
CIRCLE
  8
PIN_SOLDERMASK_BOTTOM
 10
75.241988
 20
36.819891
 40
0.175006
  0
CIRCLE
  8
PIN_SOLDERMASK_BOTTOM
 10
75.241988
 20
36.184891
 40
0.175006
  0
CIRCLE
  8
PIN_SOLDERMASK_BOTTOM
 10
75.241988
 20
35.549891
 40
0.175006
  0
CIRCLE
  8
PIN_SOLDERMASK_BOTTOM
 10
75.241988
 20
34.914891
 40
0.175006
  0
CIRCLE
  8
PIN_SOLDERMASK_BOTTOM
 10
75.241988
 20
34.279891
 40
0.175006
  0
CIRCLE
  8
PIN_SOLDERMASK_BOTTOM
 10
75.241988
 20
33.644891
 40
0.175006
  0
CIRCLE
  8
PIN_SOLDERMASK_BOTTOM
 10
75.241988
 20
33.009891
 40
0.175006
  0
CIRCLE
  8
PIN_SOLDERMASK_BOTTOM
 10
75.241988
 20
32.374891
 40
0.175006
  0
CIRCLE
  8
PIN_SOLDERMASK_BOTTOM
 10
75.241988
 20
31.739891
 40
0.175006
  0
CIRCLE
  8
PIN_SOLDERMASK_BOTTOM
 10
75.241988
 20
31.104891
 40
0.175006
  0
CIRCLE
  8
PIN_SOLDERMASK_BOTTOM
 10
75.241988
 20
30.469891
 40
0.175006
  0
CIRCLE
  8
PIN_SOLDERMASK_BOTTOM
 10
75.241988
 20
29.834891
 40
0.175006
  0
CIRCLE
  8
PIN_SOLDERMASK_BOTTOM
 10
75.241988
 20
29.199891
 40
0.175006
  0
CIRCLE
  8
PIN_SOLDERMASK_BOTTOM
 10
75.241988
 20
28.564891
 40
0.175006
  0
CIRCLE
  8
PIN_SOLDERMASK_BOTTOM
 10
75.241988
 20
27.929891
 40
0.175006
  0
CIRCLE
  8
PIN_SOLDERMASK_BOTTOM
 10
75.241988
 20
27.294891
 40
0.175006
  0
CIRCLE
  8
PIN_SOLDERMASK_BOTTOM
 10
75.241988
 20
26.659891
 40
0.175006
  0
CIRCLE
  8
PIN_SOLDERMASK_BOTTOM
 10
75.241988
 20
26.024891
 40
0.175006
  0
CIRCLE
  8
PIN_SOLDERMASK_BOTTOM
 10
75.241988
 20
25.389891
 40
0.175006
  0
CIRCLE
  8
PIN_SOLDERMASK_BOTTOM
 10
75.241988
 20
24.754891
 40
0.175006
  0
CIRCLE
  8
PIN_SOLDERMASK_BOTTOM
 10
75.241988
 20
24.119891
 40
0.175006
  0
CIRCLE
  8
PIN_SOLDERMASK_BOTTOM
 10
75.241988
 20
23.484891
 40
0.175006
  0
CIRCLE
  8
PIN_SOLDERMASK_BOTTOM
 10
75.241988
 20
22.849891
 40
0.175006
  0
CIRCLE
  8
PIN_SOLDERMASK_BOTTOM
 10
76.202007
 20
38.724891
 40
0.175006
  0
CIRCLE
  8
PIN_SOLDERMASK_BOTTOM
 10
76.202007
 20
38.089891
 40
0.175006
  0
CIRCLE
  8
PIN_SOLDERMASK_BOTTOM
 10
76.202007
 20
37.454891
 40
0.175006
  0
CIRCLE
  8
PIN_SOLDERMASK_BOTTOM
 10
76.202007
 20
36.819891
 40
0.175006
  0
CIRCLE
  8
PIN_SOLDERMASK_BOTTOM
 10
76.202007
 20
36.184891
 40
0.175006
  0
CIRCLE
  8
PIN_SOLDERMASK_BOTTOM
 10
76.202007
 20
35.549891
 40
0.175006
  0
CIRCLE
  8
PIN_SOLDERMASK_BOTTOM
 10
76.202007
 20
34.914891
 40
0.175006
  0
CIRCLE
  8
PIN_SOLDERMASK_BOTTOM
 10
76.202007
 20
34.279891
 40
0.175006
  0
CIRCLE
  8
PIN_SOLDERMASK_BOTTOM
 10
76.202007
 20
33.644891
 40
0.175006
  0
CIRCLE
  8
PIN_SOLDERMASK_BOTTOM
 10
76.202007
 20
33.009891
 40
0.175006
  0
CIRCLE
  8
PIN_SOLDERMASK_BOTTOM
 10
76.202007
 20
32.374891
 40
0.175006
  0
CIRCLE
  8
PIN_SOLDERMASK_BOTTOM
 10
76.202007
 20
31.739891
 40
0.175006
  0
CIRCLE
  8
PIN_SOLDERMASK_BOTTOM
 10
76.202007
 20
31.104891
 40
0.175006
  0
CIRCLE
  8
PIN_SOLDERMASK_BOTTOM
 10
76.202007
 20
30.469891
 40
0.175006
  0
CIRCLE
  8
PIN_SOLDERMASK_BOTTOM
 10
76.202007
 20
29.834891
 40
0.175006
  0
CIRCLE
  8
PIN_SOLDERMASK_BOTTOM
 10
76.202007
 20
29.199891
 40
0.175006
  0
CIRCLE
  8
PIN_SOLDERMASK_BOTTOM
 10
76.202007
 20
28.564891
 40
0.175006
  0
CIRCLE
  8
PIN_SOLDERMASK_BOTTOM
 10
76.202007
 20
27.929891
 40
0.175006
  0
CIRCLE
  8
PIN_SOLDERMASK_BOTTOM
 10
76.202007
 20
27.294891
 40
0.175006
  0
CIRCLE
  8
PIN_SOLDERMASK_BOTTOM
 10
76.202007
 20
26.659891
 40
0.175006
  0
CIRCLE
  8
PIN_SOLDERMASK_BOTTOM
 10
76.202007
 20
26.024891
 40
0.175006
  0
CIRCLE
  8
PIN_SOLDERMASK_BOTTOM
 10
76.202007
 20
25.389891
 40
0.175006
  0
CIRCLE
  8
PIN_SOLDERMASK_BOTTOM
 10
76.202007
 20
24.754891
 40
0.175006
  0
CIRCLE
  8
PIN_SOLDERMASK_BOTTOM
 10
76.202007
 20
24.119891
 40
0.175006
  0
CIRCLE
  8
PIN_SOLDERMASK_BOTTOM
 10
76.202007
 20
23.484891
 40
0.175006
  0
CIRCLE
  8
PIN_SOLDERMASK_BOTTOM
 10
76.202007
 20
22.849891
 40
0.175006
  0
CIRCLE
  8
PIN_SOLDERMASK_BOTTOM
 10
77.781988
 20
38.724891
 40
0.175006
  0
CIRCLE
  8
PIN_SOLDERMASK_BOTTOM
 10
77.781988
 20
38.089891
 40
0.175006
  0
CIRCLE
  8
PIN_SOLDERMASK_BOTTOM
 10
77.781988
 20
37.454891
 40
0.175006
  0
CIRCLE
  8
PIN_SOLDERMASK_BOTTOM
 10
77.781988
 20
36.819891
 40
0.175006
  0
CIRCLE
  8
PIN_SOLDERMASK_BOTTOM
 10
77.781988
 20
36.184891
 40
0.175006
  0
CIRCLE
  8
PIN_SOLDERMASK_BOTTOM
 10
77.781988
 20
35.549891
 40
0.175006
  0
CIRCLE
  8
PIN_SOLDERMASK_BOTTOM
 10
77.781988
 20
34.914891
 40
0.175006
  0
CIRCLE
  8
PIN_SOLDERMASK_BOTTOM
 10
77.781988
 20
34.279891
 40
0.175006
  0
CIRCLE
  8
PIN_SOLDERMASK_BOTTOM
 10
77.781988
 20
33.644891
 40
0.175006
  0
CIRCLE
  8
PIN_SOLDERMASK_BOTTOM
 10
77.781988
 20
33.009891
 40
0.175006
  0
CIRCLE
  8
PIN_SOLDERMASK_BOTTOM
 10
77.781988
 20
32.374891
 40
0.175006
  0
CIRCLE
  8
PIN_SOLDERMASK_BOTTOM
 10
77.781988
 20
31.739891
 40
0.175006
  0
CIRCLE
  8
PIN_SOLDERMASK_BOTTOM
 10
77.781988
 20
31.104891
 40
0.175006
  0
CIRCLE
  8
PIN_SOLDERMASK_BOTTOM
 10
77.781988
 20
30.469891
 40
0.175006
  0
CIRCLE
  8
PIN_SOLDERMASK_BOTTOM
 10
77.781988
 20
29.834891
 40
0.175006
  0
CIRCLE
  8
PIN_SOLDERMASK_BOTTOM
 10
77.781988
 20
29.199891
 40
0.175006
  0
CIRCLE
  8
PIN_SOLDERMASK_BOTTOM
 10
77.781988
 20
28.564891
 40
0.175006
  0
CIRCLE
  8
PIN_SOLDERMASK_BOTTOM
 10
77.781988
 20
27.929891
 40
0.175006
  0
CIRCLE
  8
PIN_SOLDERMASK_BOTTOM
 10
77.781988
 20
27.294891
 40
0.175006
  0
CIRCLE
  8
PIN_SOLDERMASK_BOTTOM
 10
77.781988
 20
26.659891
 40
0.175006
  0
CIRCLE
  8
PIN_SOLDERMASK_BOTTOM
 10
77.781988
 20
26.024891
 40
0.175006
  0
CIRCLE
  8
PIN_SOLDERMASK_BOTTOM
 10
77.781988
 20
25.389891
 40
0.175006
  0
CIRCLE
  8
PIN_SOLDERMASK_BOTTOM
 10
77.781988
 20
24.754891
 40
0.175006
  0
CIRCLE
  8
PIN_SOLDERMASK_BOTTOM
 10
77.781988
 20
24.119891
 40
0.175006
  0
CIRCLE
  8
PIN_SOLDERMASK_BOTTOM
 10
77.781988
 20
23.484891
 40
0.175006
  0
CIRCLE
  8
PIN_SOLDERMASK_BOTTOM
 10
77.781988
 20
22.849891
 40
0.175006
  0
CIRCLE
  8
PIN_SOLDERMASK_BOTTOM
 10
78.742007
 20
38.724891
 40
0.175006
  0
CIRCLE
  8
PIN_SOLDERMASK_BOTTOM
 10
78.742007
 20
38.089891
 40
0.175006
  0
CIRCLE
  8
PIN_SOLDERMASK_BOTTOM
 10
78.742007
 20
37.454891
 40
0.175006
  0
CIRCLE
  8
PIN_SOLDERMASK_BOTTOM
 10
78.742007
 20
36.819891
 40
0.175006
  0
CIRCLE
  8
PIN_SOLDERMASK_BOTTOM
 10
78.742007
 20
36.184891
 40
0.175006
  0
CIRCLE
  8
PIN_SOLDERMASK_BOTTOM
 10
78.742007
 20
35.549891
 40
0.175006
  0
CIRCLE
  8
PIN_SOLDERMASK_BOTTOM
 10
78.742007
 20
34.914891
 40
0.175006
  0
CIRCLE
  8
PIN_SOLDERMASK_BOTTOM
 10
78.742007
 20
34.279891
 40
0.175006
  0
CIRCLE
  8
PIN_SOLDERMASK_BOTTOM
 10
78.742007
 20
33.644891
 40
0.175006
  0
CIRCLE
  8
PIN_SOLDERMASK_BOTTOM
 10
78.742007
 20
33.009891
 40
0.175006
  0
CIRCLE
  8
PIN_SOLDERMASK_BOTTOM
 10
78.742007
 20
32.374891
 40
0.175006
  0
CIRCLE
  8
PIN_SOLDERMASK_BOTTOM
 10
78.742007
 20
31.739891
 40
0.175006
  0
CIRCLE
  8
PIN_SOLDERMASK_BOTTOM
 10
78.742007
 20
31.104891
 40
0.175006
  0
CIRCLE
  8
PIN_SOLDERMASK_BOTTOM
 10
78.742007
 20
30.469891
 40
0.175006
  0
CIRCLE
  8
PIN_SOLDERMASK_BOTTOM
 10
78.742007
 20
29.834891
 40
0.175006
  0
CIRCLE
  8
PIN_SOLDERMASK_BOTTOM
 10
78.742007
 20
29.199891
 40
0.175006
  0
CIRCLE
  8
PIN_SOLDERMASK_BOTTOM
 10
78.742007
 20
28.564891
 40
0.175006
  0
CIRCLE
  8
PIN_SOLDERMASK_BOTTOM
 10
78.742007
 20
27.929891
 40
0.175006
  0
CIRCLE
  8
PIN_SOLDERMASK_BOTTOM
 10
78.742007
 20
27.294891
 40
0.175006
  0
CIRCLE
  8
PIN_SOLDERMASK_BOTTOM
 10
78.742007
 20
26.659891
 40
0.175006
  0
CIRCLE
  8
PIN_SOLDERMASK_BOTTOM
 10
78.742007
 20
26.024891
 40
0.175006
  0
CIRCLE
  8
PIN_SOLDERMASK_BOTTOM
 10
78.742007
 20
25.389891
 40
0.175006
  0
CIRCLE
  8
PIN_SOLDERMASK_BOTTOM
 10
78.742007
 20
24.754891
 40
0.175006
  0
CIRCLE
  8
PIN_SOLDERMASK_BOTTOM
 10
78.742007
 20
24.119891
 40
0.175006
  0
CIRCLE
  8
PIN_SOLDERMASK_BOTTOM
 10
78.742007
 20
23.484891
 40
0.175006
  0
CIRCLE
  8
PIN_SOLDERMASK_BOTTOM
 10
78.742007
 20
22.849891
 40
0.175006
  0
CIRCLE
  8
PIN_SOLDERMASK_BOTTOM
 10
75.241988
 20
22.214891
 40
0.175006
  0
CIRCLE
  8
PIN_SOLDERMASK_BOTTOM
 10
75.241988
 20
21.579891
 40
0.175006
  0
CIRCLE
  8
PIN_SOLDERMASK_BOTTOM
 10
75.241988
 20
20.944891
 40
0.175006
  0
CIRCLE
  8
PIN_SOLDERMASK_BOTTOM
 10
75.241988
 20
20.309891
 40
0.175006
  0
CIRCLE
  8
PIN_SOLDERMASK_BOTTOM
 10
75.241988
 20
19.674891
 40
0.175006
  0
CIRCLE
  8
PIN_SOLDERMASK_BOTTOM
 10
75.241988
 20
19.039891
 40
0.175006
  0
CIRCLE
  8
PIN_SOLDERMASK_BOTTOM
 10
75.241988
 20
18.404891
 40
0.175006
  0
CIRCLE
  8
PIN_SOLDERMASK_BOTTOM
 10
75.241988
 20
17.769891
 40
0.175006
  0
CIRCLE
  8
PIN_SOLDERMASK_BOTTOM
 10
75.241988
 20
17.134891
 40
0.175006
  0
CIRCLE
  8
PIN_SOLDERMASK_BOTTOM
 10
75.241988
 20
16.499891
 40
0.175006
  0
CIRCLE
  8
PIN_SOLDERMASK_BOTTOM
 10
75.241988
 20
15.864891
 40
0.175006
  0
CIRCLE
  8
PIN_SOLDERMASK_BOTTOM
 10
75.241988
 20
15.229891
 40
0.175006
  0
CIRCLE
  8
PIN_SOLDERMASK_BOTTOM
 10
75.241988
 20
14.594891
 40
0.175006
  0
CIRCLE
  8
PIN_SOLDERMASK_BOTTOM
 10
75.241988
 20
13.959891
 40
0.175006
  0
CIRCLE
  8
PIN_SOLDERMASK_BOTTOM
 10
75.241988
 20
13.324891
 40
0.175006
  0
CIRCLE
  8
PIN_SOLDERMASK_BOTTOM
 10
75.241988
 20
12.689891
 40
0.175006
  0
CIRCLE
  8
PIN_SOLDERMASK_BOTTOM
 10
75.241988
 20
12.054891
 40
0.175006
  0
CIRCLE
  8
PIN_SOLDERMASK_BOTTOM
 10
75.241988
 20
11.419891
 40
0.175006
  0
CIRCLE
  8
PIN_SOLDERMASK_BOTTOM
 10
75.241988
 20
10.784891
 40
0.175006
  0
CIRCLE
  8
PIN_SOLDERMASK_BOTTOM
 10
75.241988
 20
10.149891
 40
0.175006
  0
CIRCLE
  8
PIN_SOLDERMASK_BOTTOM
 10
75.241988
 20
9.514891
 40
0.175006
  0
CIRCLE
  8
PIN_SOLDERMASK_BOTTOM
 10
75.241988
 20
8.879891
 40
0.175006
  0
CIRCLE
  8
PIN_SOLDERMASK_BOTTOM
 10
75.241988
 20
8.244891
 40
0.175006
  0
CIRCLE
  8
PIN_SOLDERMASK_BOTTOM
 10
75.241988
 20
7.609891
 40
0.175006
  0
CIRCLE
  8
PIN_SOLDERMASK_BOTTOM
 10
75.241988
 20
6.974891
 40
0.175006
  0
CIRCLE
  8
PIN_SOLDERMASK_BOTTOM
 10
75.241988
 20
6.339891
 40
0.175006
  0
CIRCLE
  8
PIN_SOLDERMASK_BOTTOM
 10
75.241988
 20
5.704891
 40
0.175006
  0
CIRCLE
  8
PIN_SOLDERMASK_BOTTOM
 10
75.241988
 20
5.069891
 40
0.175006
  0
CIRCLE
  8
PIN_SOLDERMASK_BOTTOM
 10
75.241988
 20
4.434891
 40
0.175006
  0
CIRCLE
  8
PIN_SOLDERMASK_BOTTOM
 10
75.241988
 20
3.799891
 40
0.175006
  0
CIRCLE
  8
PIN_SOLDERMASK_BOTTOM
 10
75.241988
 20
3.164891
 40
0.175006
  0
CIRCLE
  8
PIN_SOLDERMASK_BOTTOM
 10
75.241988
 20
2.529891
 40
0.175006
  0
CIRCLE
  8
PIN_SOLDERMASK_BOTTOM
 10
75.241988
 20
1.894891
 40
0.175006
  0
CIRCLE
  8
PIN_SOLDERMASK_BOTTOM
 10
75.241988
 20
1.259891
 40
0.175006
  0
CIRCLE
  8
PIN_SOLDERMASK_BOTTOM
 10
76.202007
 20
1.259891
 40
0.175006
  0
CIRCLE
  8
PIN_SOLDERMASK_BOTTOM
 10
76.202007
 20
1.894891
 40
0.175006
  0
CIRCLE
  8
PIN_SOLDERMASK_BOTTOM
 10
76.202007
 20
2.529891
 40
0.175006
  0
CIRCLE
  8
PIN_SOLDERMASK_BOTTOM
 10
76.202007
 20
3.164891
 40
0.175006
  0
CIRCLE
  8
PIN_SOLDERMASK_BOTTOM
 10
76.202007
 20
3.799891
 40
0.175006
  0
CIRCLE
  8
PIN_SOLDERMASK_BOTTOM
 10
76.202007
 20
4.434891
 40
0.175006
  0
CIRCLE
  8
PIN_SOLDERMASK_BOTTOM
 10
76.202007
 20
5.069891
 40
0.175006
  0
CIRCLE
  8
PIN_SOLDERMASK_BOTTOM
 10
76.202007
 20
5.704891
 40
0.175006
  0
CIRCLE
  8
PIN_SOLDERMASK_BOTTOM
 10
76.202007
 20
6.339891
 40
0.175006
  0
CIRCLE
  8
PIN_SOLDERMASK_BOTTOM
 10
76.202007
 20
6.974891
 40
0.175006
  0
CIRCLE
  8
PIN_SOLDERMASK_BOTTOM
 10
76.202007
 20
7.609891
 40
0.175006
  0
CIRCLE
  8
PIN_SOLDERMASK_BOTTOM
 10
76.202007
 20
8.244891
 40
0.175006
  0
CIRCLE
  8
PIN_SOLDERMASK_BOTTOM
 10
76.202007
 20
8.879891
 40
0.175006
  0
CIRCLE
  8
PIN_SOLDERMASK_BOTTOM
 10
76.202007
 20
9.514891
 40
0.175006
  0
CIRCLE
  8
PIN_SOLDERMASK_BOTTOM
 10
76.202007
 20
10.149891
 40
0.175006
  0
CIRCLE
  8
PIN_SOLDERMASK_BOTTOM
 10
76.202007
 20
10.784891
 40
0.175006
  0
CIRCLE
  8
PIN_SOLDERMASK_BOTTOM
 10
76.202007
 20
11.419891
 40
0.175006
  0
CIRCLE
  8
PIN_SOLDERMASK_BOTTOM
 10
76.202007
 20
12.054891
 40
0.175006
  0
CIRCLE
  8
PIN_SOLDERMASK_BOTTOM
 10
76.202007
 20
12.689891
 40
0.175006
  0
CIRCLE
  8
PIN_SOLDERMASK_BOTTOM
 10
76.202007
 20
13.324891
 40
0.175006
  0
CIRCLE
  8
PIN_SOLDERMASK_BOTTOM
 10
76.202007
 20
13.959891
 40
0.175006
  0
CIRCLE
  8
PIN_SOLDERMASK_BOTTOM
 10
76.202007
 20
14.594891
 40
0.175006
  0
CIRCLE
  8
PIN_SOLDERMASK_BOTTOM
 10
76.202007
 20
15.229891
 40
0.175006
  0
CIRCLE
  8
PIN_SOLDERMASK_BOTTOM
 10
76.202007
 20
15.864891
 40
0.175006
  0
CIRCLE
  8
PIN_SOLDERMASK_BOTTOM
 10
76.202007
 20
16.499891
 40
0.175006
  0
CIRCLE
  8
PIN_SOLDERMASK_BOTTOM
 10
76.202007
 20
17.134891
 40
0.175006
  0
CIRCLE
  8
PIN_SOLDERMASK_BOTTOM
 10
76.202007
 20
17.769891
 40
0.175006
  0
CIRCLE
  8
PIN_SOLDERMASK_BOTTOM
 10
76.202007
 20
18.404891
 40
0.175006
  0
CIRCLE
  8
PIN_SOLDERMASK_BOTTOM
 10
76.202007
 20
19.039891
 40
0.175006
  0
CIRCLE
  8
PIN_SOLDERMASK_BOTTOM
 10
76.202007
 20
19.674891
 40
0.175006
  0
CIRCLE
  8
PIN_SOLDERMASK_BOTTOM
 10
76.202007
 20
20.309891
 40
0.175006
  0
CIRCLE
  8
PIN_SOLDERMASK_BOTTOM
 10
76.202007
 20
20.944891
 40
0.175006
  0
CIRCLE
  8
PIN_SOLDERMASK_BOTTOM
 10
76.202007
 20
21.579891
 40
0.175006
  0
CIRCLE
  8
PIN_SOLDERMASK_BOTTOM
 10
76.202007
 20
22.214891
 40
0.175006
  0
CIRCLE
  8
PIN_SOLDERMASK_BOTTOM
 10
77.781988
 20
1.259891
 40
0.175006
  0
CIRCLE
  8
PIN_SOLDERMASK_BOTTOM
 10
77.781988
 20
1.894891
 40
0.175006
  0
CIRCLE
  8
PIN_SOLDERMASK_BOTTOM
 10
77.781988
 20
2.529891
 40
0.175006
  0
CIRCLE
  8
PIN_SOLDERMASK_BOTTOM
 10
77.781988
 20
3.164891
 40
0.175006
  0
CIRCLE
  8
PIN_SOLDERMASK_BOTTOM
 10
77.781988
 20
3.799891
 40
0.175006
  0
CIRCLE
  8
PIN_SOLDERMASK_BOTTOM
 10
77.781988
 20
4.434891
 40
0.175006
  0
CIRCLE
  8
PIN_SOLDERMASK_BOTTOM
 10
77.781988
 20
5.069891
 40
0.175006
  0
CIRCLE
  8
PIN_SOLDERMASK_BOTTOM
 10
77.781988
 20
5.704891
 40
0.175006
  0
CIRCLE
  8
PIN_SOLDERMASK_BOTTOM
 10
77.781988
 20
6.339891
 40
0.175006
  0
CIRCLE
  8
PIN_SOLDERMASK_BOTTOM
 10
77.781988
 20
6.974891
 40
0.175006
  0
CIRCLE
  8
PIN_SOLDERMASK_BOTTOM
 10
77.781988
 20
7.609891
 40
0.175006
  0
CIRCLE
  8
PIN_SOLDERMASK_BOTTOM
 10
77.781988
 20
8.244891
 40
0.175006
  0
CIRCLE
  8
PIN_SOLDERMASK_BOTTOM
 10
77.781988
 20
8.879891
 40
0.175006
  0
CIRCLE
  8
PIN_SOLDERMASK_BOTTOM
 10
77.781988
 20
9.514891
 40
0.175006
  0
CIRCLE
  8
PIN_SOLDERMASK_BOTTOM
 10
77.781988
 20
10.149891
 40
0.175006
  0
CIRCLE
  8
PIN_SOLDERMASK_BOTTOM
 10
77.781988
 20
10.784891
 40
0.175006
  0
CIRCLE
  8
PIN_SOLDERMASK_BOTTOM
 10
77.781988
 20
11.419891
 40
0.175006
  0
CIRCLE
  8
PIN_SOLDERMASK_BOTTOM
 10
77.781988
 20
12.054891
 40
0.175006
  0
CIRCLE
  8
PIN_SOLDERMASK_BOTTOM
 10
77.781988
 20
12.689891
 40
0.175006
  0
CIRCLE
  8
PIN_SOLDERMASK_BOTTOM
 10
77.781988
 20
13.324891
 40
0.175006
  0
CIRCLE
  8
PIN_SOLDERMASK_BOTTOM
 10
77.781988
 20
13.959891
 40
0.175006
  0
CIRCLE
  8
PIN_SOLDERMASK_BOTTOM
 10
77.781988
 20
14.594891
 40
0.175006
  0
CIRCLE
  8
PIN_SOLDERMASK_BOTTOM
 10
77.781988
 20
15.229891
 40
0.175006
  0
CIRCLE
  8
PIN_SOLDERMASK_BOTTOM
 10
77.781988
 20
15.864891
 40
0.175006
  0
CIRCLE
  8
PIN_SOLDERMASK_BOTTOM
 10
77.781988
 20
16.499891
 40
0.175006
  0
CIRCLE
  8
PIN_SOLDERMASK_BOTTOM
 10
77.781988
 20
17.134891
 40
0.175006
  0
CIRCLE
  8
PIN_SOLDERMASK_BOTTOM
 10
77.781988
 20
17.769891
 40
0.175006
  0
CIRCLE
  8
PIN_SOLDERMASK_BOTTOM
 10
77.781988
 20
18.404891
 40
0.175006
  0
CIRCLE
  8
PIN_SOLDERMASK_BOTTOM
 10
77.781988
 20
19.039891
 40
0.175006
  0
CIRCLE
  8
PIN_SOLDERMASK_BOTTOM
 10
77.781988
 20
19.674891
 40
0.175006
  0
CIRCLE
  8
PIN_SOLDERMASK_BOTTOM
 10
77.781988
 20
20.309891
 40
0.175006
  0
CIRCLE
  8
PIN_SOLDERMASK_BOTTOM
 10
77.781988
 20
20.944891
 40
0.175006
  0
CIRCLE
  8
PIN_SOLDERMASK_BOTTOM
 10
77.781988
 20
21.579891
 40
0.175006
  0
CIRCLE
  8
PIN_SOLDERMASK_BOTTOM
 10
77.781988
 20
22.214891
 40
0.175006
  0
CIRCLE
  8
PIN_SOLDERMASK_BOTTOM
 10
78.742007
 20
1.259891
 40
0.175006
  0
CIRCLE
  8
PIN_SOLDERMASK_BOTTOM
 10
78.742007
 20
1.894891
 40
0.175006
  0
CIRCLE
  8
PIN_SOLDERMASK_BOTTOM
 10
78.742007
 20
2.529891
 40
0.175006
  0
CIRCLE
  8
PIN_SOLDERMASK_BOTTOM
 10
78.742007
 20
3.164891
 40
0.175006
  0
CIRCLE
  8
PIN_SOLDERMASK_BOTTOM
 10
78.742007
 20
3.799891
 40
0.175006
  0
CIRCLE
  8
PIN_SOLDERMASK_BOTTOM
 10
78.742007
 20
4.434891
 40
0.175006
  0
CIRCLE
  8
PIN_SOLDERMASK_BOTTOM
 10
78.742007
 20
5.069891
 40
0.175006
  0
CIRCLE
  8
PIN_SOLDERMASK_BOTTOM
 10
78.742007
 20
5.704891
 40
0.175006
  0
CIRCLE
  8
PIN_SOLDERMASK_BOTTOM
 10
78.742007
 20
6.339891
 40
0.175006
  0
CIRCLE
  8
PIN_SOLDERMASK_BOTTOM
 10
78.742007
 20
6.974891
 40
0.175006
  0
CIRCLE
  8
PIN_SOLDERMASK_BOTTOM
 10
78.742007
 20
7.609891
 40
0.175006
  0
CIRCLE
  8
PIN_SOLDERMASK_BOTTOM
 10
78.742007
 20
8.244891
 40
0.175006
  0
CIRCLE
  8
PIN_SOLDERMASK_BOTTOM
 10
78.742007
 20
8.879891
 40
0.175006
  0
CIRCLE
  8
PIN_SOLDERMASK_BOTTOM
 10
78.742007
 20
9.514891
 40
0.175006
  0
CIRCLE
  8
PIN_SOLDERMASK_BOTTOM
 10
78.742007
 20
10.149891
 40
0.175006
  0
CIRCLE
  8
PIN_SOLDERMASK_BOTTOM
 10
78.742007
 20
10.784891
 40
0.175006
  0
CIRCLE
  8
PIN_SOLDERMASK_BOTTOM
 10
78.742007
 20
11.419891
 40
0.175006
  0
CIRCLE
  8
PIN_SOLDERMASK_BOTTOM
 10
78.742007
 20
12.054891
 40
0.175006
  0
CIRCLE
  8
PIN_SOLDERMASK_BOTTOM
 10
78.742007
 20
12.689891
 40
0.175006
  0
CIRCLE
  8
PIN_SOLDERMASK_BOTTOM
 10
78.742007
 20
13.324891
 40
0.175006
  0
CIRCLE
  8
PIN_SOLDERMASK_BOTTOM
 10
78.742007
 20
13.959891
 40
0.175006
  0
CIRCLE
  8
PIN_SOLDERMASK_BOTTOM
 10
78.742007
 20
14.594891
 40
0.175006
  0
CIRCLE
  8
PIN_SOLDERMASK_BOTTOM
 10
78.742007
 20
15.229891
 40
0.175006
  0
CIRCLE
  8
PIN_SOLDERMASK_BOTTOM
 10
78.742007
 20
15.864891
 40
0.175006
  0
CIRCLE
  8
PIN_SOLDERMASK_BOTTOM
 10
78.742007
 20
16.499891
 40
0.175006
  0
CIRCLE
  8
PIN_SOLDERMASK_BOTTOM
 10
78.742007
 20
17.134891
 40
0.175006
  0
CIRCLE
  8
PIN_SOLDERMASK_BOTTOM
 10
78.742007
 20
17.769891
 40
0.175006
  0
CIRCLE
  8
PIN_SOLDERMASK_BOTTOM
 10
78.742007
 20
18.404891
 40
0.175006
  0
CIRCLE
  8
PIN_SOLDERMASK_BOTTOM
 10
78.742007
 20
19.039891
 40
0.175006
  0
CIRCLE
  8
PIN_SOLDERMASK_BOTTOM
 10
78.742007
 20
19.674891
 40
0.175006
  0
CIRCLE
  8
PIN_SOLDERMASK_BOTTOM
 10
78.742007
 20
20.309891
 40
0.175006
  0
CIRCLE
  8
PIN_SOLDERMASK_BOTTOM
 10
78.742007
 20
20.944891
 40
0.175006
  0
CIRCLE
  8
PIN_SOLDERMASK_BOTTOM
 10
78.742007
 20
21.579891
 40
0.175006
  0
CIRCLE
  8
PIN_SOLDERMASK_BOTTOM
 10
78.742007
 20
22.214891
 40
0.175006
  0
POLYLINE
  8
PG_ASSEMBLY_BOTTOM
 66
1
 70
1
 40
0.000000
 41
0.000000
 39
0.000000
  0
VERTEX
  8
PG_ASSEMBLY_BOTTOM
 10
74.492002
 20
-1.417599
 40
0.000000
 41
0.000000
 42
0.000000
  0
VERTEX
  8
PG_ASSEMBLY_BOTTOM
 10
79.491992
 20
-1.417599
 40
0.000000
 41
0.000000
 42
0.000000
  0
VERTEX
  8
PG_ASSEMBLY_BOTTOM
 10
79.491992
 20
41.402381
 40
0.000000
 41
0.000000
 42
0.000000
  0
VERTEX
  8
PG_ASSEMBLY_BOTTOM
 10
74.492002
 20
41.402381
 40
0.000000
 41
0.000000
 42
0.000000
  0
SEQEND
  0
TEXT
  8
PG_SILKSCREEN_BOTTOM
 10
78.507209
 20
41.571570
 11
0.000000
 21
0.000000
 40
0.635000
 41
1.080000
 50
270.000000
  7
STANDARD
 71
2
 72
0
  1
D
 73
0
  0
TEXT
  8
PG_SILKSCREEN_BOTTOM
 10
77.547216
 20
41.571570
 11
0.000000
 21
0.000000
 40
0.635000
 41
1.080000
 50
270.000000
  7
STANDARD
 71
2
 72
0
  1
C
 73
0
  0
TEXT
  8
PG_SILKSCREEN_BOTTOM
 10
75.967209
 20
41.571570
 11
0.000000
 21
0.000000
 40
0.635000
 41
1.080000
 50
270.000000
  7
STANDARD
 71
2
 72
0
  1
B
 73
0
  0
TEXT
  8
PG_SILKSCREEN_BOTTOM
 10
73.585705
 20
4.177690
 11
0.000000
 21
0.000000
 40
0.635000
 41
1.080000
 50
270.000000
  7
STANDARD
 71
2
 72
0
  1
55
 73
0
  0
TEXT
  8
PG_SILKSCREEN_BOTTOM
 10
73.585705
 20
13.702690
 11
0.000000
 21
0.000000
 40
0.635000
 41
1.080000
 50
270.000000
  7
STANDARD
 71
2
 72
0
  1
40
 73
0
  0
TEXT
  8
PG_SILKSCREEN_BOTTOM
 10
73.585705
 20
7.352690
 11
0.000000
 21
0.000000
 40
0.635000
 41
1.080000
 50
270.000000
  7
STANDARD
 71
2
 72
0
  1
50
 73
0
  0
TEXT
  8
PG_SILKSCREEN_BOTTOM
 10
73.585705
 20
16.877690
 11
0.000000
 21
0.000000
 40
0.635000
 41
1.080000
 50
270.000000
  7
STANDARD
 71
2
 72
0
  1
35
 73
0
  0
TEXT
  8
PG_SILKSCREEN_BOTTOM
 10
73.585705
 20
20.052690
 11
0.000000
 21
0.000000
 40
0.635000
 41
1.080000
 50
270.000000
  7
STANDARD
 71
2
 72
0
  1
30
 73
0
  0
TEXT
  8
PG_SILKSCREEN_BOTTOM
 10
73.585705
 20
10.527690
 11
0.000000
 21
0.000000
 40
0.635000
 41
1.080000
 50
270.000000
  7
STANDARD
 71
2
 72
0
  1
45
 73
0
  0
TEXT
  8
PG_SILKSCREEN_BOTTOM
 10
73.585705
 20
26.402690
 11
0.000000
 21
0.000000
 40
0.635000
 41
1.080000
 50
270.000000
  7
STANDARD
 71
2
 72
0
  1
20
 73
0
  0
TEXT
  8
PG_SILKSCREEN_BOTTOM
 10
73.585705
 20
23.227690
 11
0.000000
 21
0.000000
 40
0.635000
 41
1.080000
 50
270.000000
  7
STANDARD
 71
2
 72
0
  1
25
 73
0
  0
TEXT
  8
PG_SILKSCREEN_BOTTOM
 10
73.585705
 20
29.806290
 11
0.000000
 21
0.000000
 40
0.635000
 41
1.080000
 50
270.000000
  7
STANDARD
 71
2
 72
0
  1
15
 73
0
  0
TEXT
  8
PG_SILKSCREEN_BOTTOM
 10
73.585705
 20
1.231290
 11
0.000000
 21
0.000000
 40
0.635000
 41
1.080000
 50
270.000000
  7
STANDARD
 71
2
 72
0
  1
60
 73
0
  0
TEXT
  8
PG_SILKSCREEN_BOTTOM
 10
73.585705
 20
32.981290
 11
0.000000
 21
0.000000
 40
0.635000
 41
1.080000
 50
270.000000
  7
STANDARD
 71
2
 72
0
  1
10
 73
0
  0
TEXT
  8
PG_SILKSCREEN_BOTTOM
 10
73.630688
 20
35.638791
 11
0.000000
 21
0.000000
 40
0.635000
 41
1.080000
 50
270.000000
  7
STANDARD
 71
2
 72
0
  1
5
 73
0
  0
TEXT
  8
PG_SILKSCREEN_BOTTOM
 10
73.704196
 20
38.569290
 11
0.000000
 21
0.000000
 40
0.635000
 41
1.080000
 50
270.000000
  7
STANDARD
 71
2
 72
0
  1
1
 73
0
  0
TEXT
  8
PG_SILKSCREEN_BOTTOM
 10
75.007216
 20
41.571570
 11
0.000000
 21
0.000000
 40
0.635000
 41
1.080000
 50
270.000000
  7
STANDARD
 71
2
 72
0
  1
A
 73
0
  0
CIRCLE
  8
PIN_SOLDERMASK_BOTTOM
 10
76.000000
 20
-7.998968
 40
3.073400
  0
CIRCLE
  8
PIN_SOLDERMASK_BOTTOM
 10
76.000000
 20
-5.712968
 40
0.584200
  0
CIRCLE
  8
PIN_SOLDERMASK_BOTTOM
 10
74.383494
 20
-6.382461
 40
0.584200
  0
CIRCLE
  8
PIN_SOLDERMASK_BOTTOM
 10
73.714000
 20
-7.998968
 40
0.584200
  0
CIRCLE
  8
PIN_SOLDERMASK_BOTTOM
 10
74.383494
 20
-9.615475
 40
0.584200
  0
CIRCLE
  8
PIN_SOLDERMASK_BOTTOM
 10
76.000000
 20
-10.284968
 40
0.584200
  0
CIRCLE
  8
PIN_SOLDERMASK_BOTTOM
 10
77.616507
 20
-9.615475
 40
0.584200
  0
CIRCLE
  8
PIN_SOLDERMASK_BOTTOM
 10
78.286000
 20
-7.998968
 40
0.584200
  0
CIRCLE
  8
PIN_SOLDERMASK_BOTTOM
 10
77.616507
 20
-6.382461
 40
0.584200
  0
CIRCLE
  8
PIN_SOLDERMASK_BOTTOM
 10
76.000000
 20
47.998990
 40
3.073400
  0
CIRCLE
  8
PIN_SOLDERMASK_BOTTOM
 10
76.000000
 20
50.284990
 40
0.584200
  0
CIRCLE
  8
PIN_SOLDERMASK_BOTTOM
 10
74.383494
 20
49.615496
 40
0.584200
  0
CIRCLE
  8
PIN_SOLDERMASK_BOTTOM
 10
73.714000
 20
47.998990
 40
0.584200
  0
CIRCLE
  8
PIN_SOLDERMASK_BOTTOM
 10
74.383494
 20
46.382483
 40
0.584200
  0
CIRCLE
  8
PIN_SOLDERMASK_BOTTOM
 10
76.000000
 20
45.712990
 40
0.584200
  0
CIRCLE
  8
PIN_SOLDERMASK_BOTTOM
 10
77.616507
 20
46.382483
 40
0.584200
  0
CIRCLE
  8
PIN_SOLDERMASK_BOTTOM
 10
78.286000
 20
47.998990
 40
0.584200
  0
CIRCLE
  8
PIN_SOLDERMASK_BOTTOM
 10
77.616507
 20
49.615496
 40
0.584200
  0
CIRCLE
  8
PIN_SOLDERMASK_BOTTOM
 10
3.999992
 20
-7.998993
 40
3.073400
  0
CIRCLE
  8
PIN_SOLDERMASK_BOTTOM
 10
3.999992
 20
-5.712993
 40
0.584200
  0
CIRCLE
  8
PIN_SOLDERMASK_BOTTOM
 10
2.383485
 20
-6.382487
 40
0.584200
  0
CIRCLE
  8
PIN_SOLDERMASK_BOTTOM
 10
1.713992
 20
-7.998993
 40
0.584200
  0
CIRCLE
  8
PIN_SOLDERMASK_BOTTOM
 10
2.383485
 20
-9.615500
 40
0.584200
  0
CIRCLE
  8
PIN_SOLDERMASK_BOTTOM
 10
3.999992
 20
-10.284993
 40
0.584200
  0
CIRCLE
  8
PIN_SOLDERMASK_BOTTOM
 10
5.616499
 20
-9.615500
 40
0.584200
  0
CIRCLE
  8
PIN_SOLDERMASK_BOTTOM
 10
6.285992
 20
-7.998993
 40
0.584200
  0
CIRCLE
  8
PIN_SOLDERMASK_BOTTOM
 10
5.616499
 20
-6.382487
 40
0.584200
  0
CIRCLE
  8
PIN_SOLDERMASK_BOTTOM
 10
3.999992
 20
47.998990
 40
3.073400
  0
CIRCLE
  8
PIN_SOLDERMASK_BOTTOM
 10
3.999992
 20
50.284990
 40
0.584200
  0
CIRCLE
  8
PIN_SOLDERMASK_BOTTOM
 10
2.383485
 20
49.615496
 40
0.584200
  0
CIRCLE
  8
PIN_SOLDERMASK_BOTTOM
 10
1.713992
 20
47.998990
 40
0.584200
  0
CIRCLE
  8
PIN_SOLDERMASK_BOTTOM
 10
2.383485
 20
46.382483
 40
0.584200
  0
CIRCLE
  8
PIN_SOLDERMASK_BOTTOM
 10
3.999992
 20
45.712990
 40
0.584200
  0
CIRCLE
  8
PIN_SOLDERMASK_BOTTOM
 10
5.616499
 20
46.382483
 40
0.584200
  0
CIRCLE
  8
PIN_SOLDERMASK_BOTTOM
 10
6.285992
 20
47.998990
 40
0.584200
  0
CIRCLE
  8
PIN_SOLDERMASK_BOTTOM
 10
5.616499
 20
49.615496
 40
0.584200
  0
CIRCLE
  8
PIN_SOLDERMASK_BOTTOM
 10
3.999992
 20
-15.999993
 40
3.073400
  0
CIRCLE
  8
PIN_SOLDERMASK_BOTTOM
 10
3.999992
 20
-13.713993
 40
0.584200
  0
CIRCLE
  8
PIN_SOLDERMASK_BOTTOM
 10
2.383485
 20
-14.383487
 40
0.584200
  0
CIRCLE
  8
PIN_SOLDERMASK_BOTTOM
 10
1.713992
 20
-15.999993
 40
0.584200
  0
CIRCLE
  8
PIN_SOLDERMASK_BOTTOM
 10
2.383485
 20
-17.616500
 40
0.584200
  0
CIRCLE
  8
PIN_SOLDERMASK_BOTTOM
 10
3.999992
 20
-18.285993
 40
0.584200
  0
CIRCLE
  8
PIN_SOLDERMASK_BOTTOM
 10
5.616499
 20
-17.616500
 40
0.584200
  0
CIRCLE
  8
PIN_SOLDERMASK_BOTTOM
 10
6.285992
 20
-15.999993
 40
0.584200
  0
CIRCLE
  8
PIN_SOLDERMASK_BOTTOM
 10
5.616499
 20
-14.383487
 40
0.584200
  0
CIRCLE
  8
PIN_SOLDERMASK_BOTTOM
 10
76.000000
 20
-15.999968
 40
3.073400
  0
CIRCLE
  8
PIN_SOLDERMASK_BOTTOM
 10
76.000000
 20
-13.713968
 40
0.584200
  0
CIRCLE
  8
PIN_SOLDERMASK_BOTTOM
 10
74.383494
 20
-14.383461
 40
0.584200
  0
CIRCLE
  8
PIN_SOLDERMASK_BOTTOM
 10
73.714000
 20
-15.999968
 40
0.584200
  0
CIRCLE
  8
PIN_SOLDERMASK_BOTTOM
 10
74.383494
 20
-17.616475
 40
0.584200
  0
CIRCLE
  8
PIN_SOLDERMASK_BOTTOM
 10
76.000000
 20
-18.285968
 40
0.584200
  0
CIRCLE
  8
PIN_SOLDERMASK_BOTTOM
 10
77.616507
 20
-17.616475
 40
0.584200
  0
CIRCLE
  8
PIN_SOLDERMASK_BOTTOM
 10
78.286000
 20
-15.999968
 40
0.584200
  0
CIRCLE
  8
PIN_SOLDERMASK_BOTTOM
 10
77.616507
 20
-14.383461
 40
0.584200
  0
CIRCLE
  8
PIN_SOLDERMASK_BOTTOM
 10
76.000000
 20
55.999990
 40
3.073400
  0
CIRCLE
  8
PIN_SOLDERMASK_BOTTOM
 10
76.000000
 20
58.285990
 40
0.584200
  0
CIRCLE
  8
PIN_SOLDERMASK_BOTTOM
 10
74.383494
 20
57.616496
 40
0.584200
  0
CIRCLE
  8
PIN_SOLDERMASK_BOTTOM
 10
73.714000
 20
55.999990
 40
0.584200
  0
CIRCLE
  8
PIN_SOLDERMASK_BOTTOM
 10
74.383494
 20
54.383483
 40
0.584200
  0
CIRCLE
  8
PIN_SOLDERMASK_BOTTOM
 10
76.000000
 20
53.713990
 40
0.584200
  0
CIRCLE
  8
PIN_SOLDERMASK_BOTTOM
 10
77.616507
 20
54.383483
 40
0.584200
  0
CIRCLE
  8
PIN_SOLDERMASK_BOTTOM
 10
78.286000
 20
55.999990
 40
0.584200
  0
CIRCLE
  8
PIN_SOLDERMASK_BOTTOM
 10
77.616507
 20
57.616496
 40
0.584200
  0
CIRCLE
  8
PIN_SOLDERMASK_BOTTOM
 10
3.999992
 20
55.999990
 40
3.073400
  0
CIRCLE
  8
PIN_SOLDERMASK_BOTTOM
 10
3.999992
 20
58.285990
 40
0.584200
  0
CIRCLE
  8
PIN_SOLDERMASK_BOTTOM
 10
2.383485
 20
57.616496
 40
0.584200
  0
CIRCLE
  8
PIN_SOLDERMASK_BOTTOM
 10
1.713992
 20
55.999990
 40
0.584200
  0
CIRCLE
  8
PIN_SOLDERMASK_BOTTOM
 10
2.383485
 20
54.383483
 40
0.584200
  0
CIRCLE
  8
PIN_SOLDERMASK_BOTTOM
 10
3.999992
 20
53.713990
 40
0.584200
  0
CIRCLE
  8
PIN_SOLDERMASK_BOTTOM
 10
5.616499
 20
54.383483
 40
0.584200
  0
CIRCLE
  8
PIN_SOLDERMASK_BOTTOM
 10
6.285992
 20
55.999990
 40
0.584200
  0
CIRCLE
  8
PIN_SOLDERMASK_BOTTOM
 10
5.616499
 20
57.616496
 40
0.584200
  0
POLYLINE
  8
BG_OUTLINE
 66
1
 70
0
 40
0.000000
 41
0.000000
 39
0.000000
  0
VERTEX
  8
BG_OUTLINE
 10
79.999992
 20
0.000000
 40
0.000000
 41
0.000000
 42
0.000000
  0
VERTEX
  8
BG_OUTLINE
 10
79.999992
 20
-18.499988
 40
0.000000
 41
0.000000
 42
-0.414214
  0
VERTEX
  8
BG_OUTLINE
 10
78.499995
 20
-19.999985
 40
0.000000
 41
0.000000
 42
0.000000
  0
VERTEX
  8
BG_OUTLINE
 10
1.499997
 20
-19.999985
 40
0.000000
 41
0.000000
 42
-0.414214
  0
VERTEX
  8
BG_OUTLINE
 10
0.000000
 20
-18.499988
 40
0.000000
 41
0.000000
 42
0.000000
  0
VERTEX
  8
BG_OUTLINE
 10
0.000000
 20
0.000000
 40
0.000000
 41
0.000000
 42
0.000000
  0
SEQEND
  0
POLYLINE
  8
BG_OUTLINE
 66
1
 70
0
 40
0.000000
 41
0.000000
 39
0.000000
  0
VERTEX
  8
BG_OUTLINE
 10
0.000000
 20
0.000000
 40
0.000000
 41
0.000000
 42
0.000000
  0
VERTEX
  8
BG_OUTLINE
 10
0.000000
 20
58.500010
 40
0.000000
 41
0.000000
 42
-0.414214
  0
VERTEX
  8
BG_OUTLINE
 10
1.499997
 20
60.000007
 40
0.000000
 41
0.000000
 42
0.000000
  0
VERTEX
  8
BG_OUTLINE
 10
78.499995
 20
60.000007
 40
0.000000
 41
0.000000
 42
-0.414214
  0
VERTEX
  8
BG_OUTLINE
 10
79.999992
 20
58.500010
 40
0.000000
 41
0.000000
 42
0.000000
  0
VERTEX
  8
BG_OUTLINE
 10
79.999992
 20
0.000000
 40
0.000000
 41
0.000000
 42
0.000000
  0
SEQEND
  0
POLYLINE
  8
BG_OUTLINE
 66
1
 70
1
 40
0.000000
 41
0.000000
 39
0.000000
  0
VERTEX
  8
BG_OUTLINE
 10
79.999992
 20
0.000000
 40
0.000000
 41
0.000000
 42
0.000000
  0
VERTEX
  8
BG_OUTLINE
 10
79.999992
 20
58.500010
 40
0.000000
 41
0.000000
 42
0.414214
  0
VERTEX
  8
BG_OUTLINE
 10
78.499995
 20
60.000007
 40
0.000000
 41
0.000000
 42
0.000000
  0
VERTEX
  8
BG_OUTLINE
 10
1.499997
 20
60.000007
 40
0.000000
 41
0.000000
 42
0.414214
  0
VERTEX
  8
BG_OUTLINE
 10
0.000000
 20
58.500010
 40
0.000000
 41
0.000000
 42
0.000000
  0
VERTEX
  8
BG_OUTLINE
 10
0.000000
 20
0.000000
 40
0.000000
 41
0.000000
 42
0.000000
  0
VERTEX
  8
BG_OUTLINE
 10
0.000000
 20
-18.499988
 40
0.000000
 41
0.000000
 42
0.414214
  0
VERTEX
  8
BG_OUTLINE
 10
1.499997
 20
-19.999985
 40
0.000000
 41
0.000000
 42
0.000000
  0
VERTEX
  8
BG_OUTLINE
 10
78.499995
 20
-19.999985
 40
0.000000
 41
0.000000
 42
0.414214
  0
VERTEX
  8
BG_OUTLINE
 10
79.999992
 20
-18.499988
 40
0.000000
 41
0.000000
 42
0.000000
  0
SEQEND
  0
ENDSEC
  0
EOF
